<svg width="264" height="293" viewBox="0 0 264 293" fill="none" xmlns="http://www.w3.org/2000/svg">
<g filter="url(#filter0_d)">
<g clip-path="url(#clip0)">
<rect x="4" width="256" height="285" fill="white"/>
<rect x="4" width="256" height="128.093" fill="#F9F9FB"/>
<rect x="3" y="-1" width="258" height="130.093" stroke="black" stroke-opacity="0.2" stroke-width="2"/>
<g filter="url(#filter1_d)">
<rect x="4" y="223" width="256" height="79" fill="#F9F9FB"/>
<rect x="3.9" y="222.9" width="256.2" height="79.2" stroke="#DADADA" stroke-width="0.2"/>
</g>
<rect x="4" y="3" width="255" height="125" fill="#FFD3FF"/>
<rect x="83.5" y="160.5" width="84" height="29" rx="14.5" fill="white" stroke="black"/>
<path d="M110.871 178.827L113.771 169.203H116.707L112.251 182H109.5L105.062 169.203H107.988L110.871 178.827ZM120.434 182H117.885V172.49H120.434V182ZM117.735 170.029C117.735 169.648 117.861 169.335 118.113 169.089C118.371 168.843 118.72 168.72 119.159 168.72C119.593 168.72 119.938 168.843 120.196 169.089C120.454 169.335 120.583 169.648 120.583 170.029C120.583 170.416 120.451 170.732 120.188 170.979C119.93 171.225 119.587 171.348 119.159 171.348C118.731 171.348 118.386 171.225 118.122 170.979C117.864 170.732 117.735 170.416 117.735 170.029ZM126.911 182.176C125.517 182.176 124.38 181.748 123.501 180.893C122.628 180.037 122.191 178.897 122.191 177.474V177.228C122.191 176.272 122.376 175.42 122.745 174.67C123.114 173.914 123.636 173.334 124.31 172.93C124.989 172.52 125.763 172.314 126.63 172.314C127.931 172.314 128.953 172.725 129.697 173.545C130.447 174.365 130.822 175.528 130.822 177.034V178.071H124.767C124.849 178.692 125.095 179.19 125.505 179.565C125.921 179.94 126.445 180.128 127.078 180.128C128.057 180.128 128.821 179.773 129.372 179.064L130.62 180.462C130.239 181.001 129.724 181.423 129.073 181.728C128.423 182.026 127.702 182.176 126.911 182.176ZM126.621 174.371C126.117 174.371 125.707 174.541 125.391 174.881C125.08 175.221 124.881 175.707 124.793 176.34H128.326V176.138C128.314 175.575 128.162 175.142 127.869 174.837C127.576 174.526 127.16 174.371 126.621 174.371ZM140.543 178.546L141.791 172.49H144.243L141.817 182H139.69L137.889 176.015L136.087 182H133.969L131.543 172.49H133.995L135.234 178.537L136.975 172.49H138.812L140.543 178.546Z" fill="black"/>
<rect x="82.2" y="213.2" width="82.6" height="19.2347" rx="9.61734" fill="white" stroke="black" stroke-width="0.4"/>
<path d="M111.505 223.002C110.54 222.725 109.837 222.385 109.396 221.982C108.958 221.576 108.739 221.076 108.739 220.482C108.739 219.811 109.007 219.256 109.542 218.818C110.081 218.377 110.78 218.156 111.64 218.156C112.226 218.156 112.747 218.27 113.204 218.496C113.665 218.723 114.021 219.035 114.271 219.434C114.524 219.832 114.651 220.268 114.651 220.74H113.521C113.521 220.225 113.356 219.82 113.028 219.527C112.7 219.23 112.237 219.082 111.64 219.082C111.085 219.082 110.651 219.205 110.339 219.451C110.03 219.693 109.876 220.031 109.876 220.465C109.876 220.812 110.022 221.107 110.315 221.35C110.612 221.588 111.114 221.807 111.821 222.006C112.532 222.205 113.087 222.426 113.485 222.668C113.888 222.906 114.185 223.186 114.376 223.506C114.571 223.826 114.669 224.203 114.669 224.637C114.669 225.328 114.399 225.883 113.86 226.301C113.321 226.715 112.601 226.922 111.698 226.922C111.112 226.922 110.565 226.811 110.058 226.588C109.55 226.361 109.157 226.053 108.88 225.662C108.606 225.271 108.47 224.828 108.47 224.332H109.601C109.601 224.848 109.79 225.256 110.169 225.557C110.552 225.854 111.062 226.002 111.698 226.002C112.292 226.002 112.747 225.881 113.063 225.639C113.38 225.396 113.538 225.066 113.538 224.648C113.538 224.23 113.392 223.908 113.099 223.682C112.806 223.451 112.274 223.225 111.505 223.002ZM117.03 221.232C117.511 220.643 118.136 220.348 118.905 220.348C120.245 220.348 120.921 221.104 120.933 222.615V226.805H119.849V222.609C119.845 222.152 119.739 221.814 119.532 221.596C119.329 221.377 119.011 221.268 118.577 221.268C118.226 221.268 117.917 221.361 117.651 221.549C117.386 221.736 117.179 221.982 117.03 222.287V226.805H115.946V217.805H117.03V221.232ZM126.47 226.805C126.407 226.68 126.356 226.457 126.317 226.137C125.813 226.66 125.212 226.922 124.513 226.922C123.888 226.922 123.374 226.746 122.972 226.395C122.573 226.039 122.374 225.59 122.374 225.047C122.374 224.387 122.624 223.875 123.124 223.512C123.628 223.145 124.335 222.961 125.245 222.961H126.3V222.463C126.3 222.084 126.187 221.783 125.96 221.561C125.733 221.334 125.399 221.221 124.958 221.221C124.571 221.221 124.247 221.318 123.985 221.514C123.724 221.709 123.593 221.945 123.593 222.223H122.503C122.503 221.906 122.614 221.602 122.837 221.309C123.063 221.012 123.368 220.777 123.751 220.605C124.138 220.434 124.562 220.348 125.022 220.348C125.753 220.348 126.325 220.531 126.739 220.898C127.153 221.262 127.368 221.764 127.384 222.404V225.322C127.384 225.904 127.458 226.367 127.606 226.711V226.805H126.47ZM124.671 225.979C125.011 225.979 125.333 225.891 125.638 225.715C125.942 225.539 126.163 225.311 126.3 225.029V223.729H125.45C124.122 223.729 123.458 224.117 123.458 224.895C123.458 225.234 123.571 225.5 123.798 225.691C124.024 225.883 124.315 225.979 124.671 225.979ZM132.147 221.438C131.983 221.41 131.806 221.396 131.614 221.396C130.903 221.396 130.421 221.699 130.167 222.305V226.805H129.083V220.465H130.138L130.155 221.197C130.511 220.631 131.015 220.348 131.667 220.348C131.878 220.348 132.038 220.375 132.147 220.43V221.438ZM135.663 226.922C134.804 226.922 134.104 226.641 133.565 226.078C133.026 225.512 132.757 224.756 132.757 223.811V223.611C132.757 222.982 132.876 222.422 133.114 221.93C133.356 221.434 133.692 221.047 134.122 220.77C134.556 220.488 135.024 220.348 135.528 220.348C136.353 220.348 136.993 220.619 137.45 221.162C137.907 221.705 138.136 222.482 138.136 223.494V223.945H133.841C133.856 224.57 134.038 225.076 134.386 225.463C134.737 225.846 135.183 226.037 135.722 226.037C136.104 226.037 136.429 225.959 136.694 225.803C136.96 225.646 137.192 225.439 137.392 225.182L138.054 225.697C137.522 226.514 136.726 226.922 135.663 226.922ZM135.528 221.238C135.091 221.238 134.724 221.398 134.427 221.719C134.13 222.035 133.946 222.48 133.876 223.055H137.052V222.973C137.021 222.422 136.872 221.996 136.606 221.695C136.341 221.391 135.981 221.238 135.528 221.238Z" fill="black"/>
<path fill-rule="evenodd" clip-rule="evenodd" d="M100.104 220.028C100.224 220.028 100.383 220.033 100.383 220.038V217.675L107.643 221.454L100.383 225.185V222.594C100.383 222.557 99.8118 222.531 99.4761 222.531C96.4962 222.531 94.0245 224.002 93.2351 226.012C93.0996 225.64 93.0004 225.252 93.0004 224.852C93.0004 222.187 96.1702 220.028 100.104 220.028Z" fill="white"/>
<path d="M26.5039 29.1973C25.5391 28.9199 24.8359 28.5801 24.3945 28.1777C23.957 27.7715 23.7383 27.2715 23.7383 26.6777C23.7383 26.0059 24.0059 25.4512 24.541 25.0137C25.0801 24.5723 25.7793 24.3516 26.6387 24.3516C27.2246 24.3516 27.7461 24.4648 28.2031 24.6914C28.6641 24.918 29.0195 25.2305 29.2695 25.6289C29.5234 26.0273 29.6504 26.4629 29.6504 26.9355H28.5195C28.5195 26.4199 28.3555 26.0156 28.0273 25.7227C27.6992 25.4258 27.2363 25.2773 26.6387 25.2773C26.084 25.2773 25.6504 25.4004 25.3379 25.6465C25.0293 25.8887 24.875 26.2266 24.875 26.6602C24.875 27.0078 25.0215 27.3027 25.3145 27.5449C25.6113 27.7832 26.1133 28.002 26.8203 28.2012C27.5312 28.4004 28.0859 28.6211 28.4844 28.8633C28.8867 29.1016 29.1836 29.3809 29.375 29.7012C29.5703 30.0215 29.668 30.3984 29.668 30.832C29.668 31.5234 29.3984 32.0781 28.8594 32.4961C28.3203 32.9102 27.5996 33.1172 26.6973 33.1172C26.1113 33.1172 25.5645 33.0059 25.0566 32.7832C24.5488 32.5566 24.1562 32.248 23.8789 31.8574C23.6055 31.4668 23.4688 31.0234 23.4688 30.5273H24.5996C24.5996 31.043 24.7891 31.4512 25.168 31.752C25.5508 32.0488 26.0605 32.1973 26.6973 32.1973C27.291 32.1973 27.7461 32.0762 28.0625 31.834C28.3789 31.5918 28.5371 31.2617 28.5371 30.8438C28.5371 30.4258 28.3906 30.1035 28.0977 29.877C27.8047 29.6465 27.2734 29.4199 26.5039 29.1973ZM32.0293 27.4277C32.5098 26.8379 33.1348 26.543 33.9043 26.543C35.2441 26.543 35.9199 27.2988 35.9316 28.8105V33H34.8477V28.8047C34.8438 28.3477 34.7383 28.0098 34.5312 27.791C34.3281 27.5723 34.0098 27.4629 33.5762 27.4629C33.2246 27.4629 32.916 27.5566 32.6504 27.7441C32.3848 27.9316 32.1777 28.1777 32.0293 28.4824V33H30.9453V24H32.0293V27.4277ZM41.4688 33C41.4062 32.875 41.3555 32.6523 41.3164 32.332C40.8125 32.8555 40.2109 33.1172 39.5117 33.1172C38.8867 33.1172 38.373 32.9414 37.9707 32.5898C37.5723 32.2344 37.373 31.7852 37.373 31.2422C37.373 30.582 37.623 30.0703 38.123 29.707C38.627 29.3398 39.334 29.1562 40.2441 29.1562H41.2988V28.6582C41.2988 28.2793 41.1855 27.9785 40.959 27.7559C40.7324 27.5293 40.3984 27.416 39.957 27.416C39.5703 27.416 39.2461 27.5137 38.9844 27.709C38.7227 27.9043 38.5918 28.1406 38.5918 28.418H37.502C37.502 28.1016 37.6133 27.7969 37.8359 27.5039C38.0625 27.207 38.3672 26.9727 38.75 26.8008C39.1367 26.6289 39.5605 26.543 40.0215 26.543C40.752 26.543 41.3242 26.7266 41.7383 27.0938C42.1523 27.457 42.3672 27.959 42.3828 28.5996V31.5176C42.3828 32.0996 42.457 32.5625 42.6055 32.9062V33H41.4688ZM39.6699 32.1738C40.0098 32.1738 40.332 32.0859 40.6367 31.9102C40.9414 31.7344 41.1621 31.5059 41.2988 31.2246V29.9238H40.4492C39.1211 29.9238 38.457 30.3125 38.457 31.0898C38.457 31.4297 38.5703 31.6953 38.7969 31.8867C39.0234 32.0781 39.3145 32.1738 39.6699 32.1738ZM47.1465 27.6328C46.9824 27.6055 46.8047 27.5918 46.6133 27.5918C45.9023 27.5918 45.4199 27.8945 45.166 28.5V33H44.082V26.6602H45.1367L45.1543 27.3926C45.5098 26.8262 46.0137 26.543 46.666 26.543C46.877 26.543 47.0371 26.5703 47.1465 26.625V27.6328ZM50.6621 33.1172C49.8027 33.1172 49.1035 32.8359 48.5645 32.2734C48.0254 31.707 47.7559 30.9512 47.7559 30.0059V29.8066C47.7559 29.1777 47.875 28.6172 48.1133 28.125C48.3555 27.6289 48.6914 27.2422 49.1211 26.9648C49.5547 26.6836 50.0234 26.543 50.5273 26.543C51.3516 26.543 51.9922 26.8145 52.4492 27.3574C52.9062 27.9004 53.1348 28.6777 53.1348 29.6895V30.1406H48.8398C48.8555 30.7656 49.0371 31.2715 49.3848 31.6582C49.7363 32.041 50.1816 32.2324 50.7207 32.2324C51.1035 32.2324 51.4277 32.1543 51.6934 31.998C51.959 31.8418 52.1914 31.6348 52.3906 31.377L53.0527 31.8926C52.5215 32.709 51.7246 33.1172 50.6621 33.1172ZM50.5273 27.4336C50.0898 27.4336 49.7227 27.5938 49.4258 27.9141C49.1289 28.2305 48.9453 28.6758 48.875 29.25H52.0508V29.168C52.0195 28.6172 51.8711 28.1914 51.6055 27.8906C51.3398 27.5859 50.9805 27.4336 50.5273 27.4336ZM54.1309 29.7773C54.1309 28.8047 54.3613 28.0234 54.8223 27.4336C55.2832 26.8398 55.8867 26.543 56.6328 26.543C57.375 26.543 57.9629 26.7969 58.3965 27.3047V24H59.4805V33H58.4844L58.4316 32.3203C57.998 32.8516 57.3945 33.1172 56.6211 33.1172C55.8867 33.1172 55.2871 32.8164 54.8223 32.2148C54.3613 31.6133 54.1309 30.8281 54.1309 29.8594V29.7773ZM55.2148 29.9004C55.2148 30.6191 55.3633 31.1816 55.6602 31.5879C55.957 31.9941 56.3672 32.1973 56.8906 32.1973C57.5781 32.1973 58.0801 31.8887 58.3965 31.2715V28.3594C58.0723 27.7617 57.5742 27.4629 56.9023 27.4629C56.3711 27.4629 55.957 27.668 55.6602 28.0781C55.3633 28.4883 55.2148 29.0957 55.2148 29.9004ZM69.7578 31.5059L70.9766 26.6602H72.0605L70.2148 33H69.3359L67.7949 28.1953L66.2949 33H65.416L63.5762 26.6602H64.6543L65.9023 31.4062L67.3789 26.6602H68.252L69.7578 31.5059ZM74.3457 33H73.2617V26.6602H74.3457V33ZM73.1738 24.9785C73.1738 24.8027 73.2266 24.6543 73.332 24.5332C73.4414 24.4121 73.6016 24.3516 73.8125 24.3516C74.0234 24.3516 74.1836 24.4121 74.293 24.5332C74.4023 24.6543 74.457 24.8027 74.457 24.9785C74.457 25.1543 74.4023 25.3008 74.293 25.418C74.1836 25.5352 74.0234 25.5938 73.8125 25.5938C73.6016 25.5938 73.4414 25.5352 73.332 25.418C73.2266 25.3008 73.1738 25.1543 73.1738 24.9785ZM77.5566 25.125V26.6602H78.7402V27.498H77.5566V31.4297C77.5566 31.6836 77.6094 31.875 77.7148 32.0039C77.8203 32.1289 78 32.1914 78.2539 32.1914C78.3789 32.1914 78.5508 32.168 78.7695 32.1211V33C78.4844 33.0781 78.207 33.1172 77.9375 33.1172C77.4531 33.1172 77.0879 32.9707 76.8418 32.6777C76.5957 32.3848 76.4727 31.9688 76.4727 31.4297V27.498H75.3184V26.6602H76.4727V25.125H77.5566ZM81.0957 27.4277C81.5762 26.8379 82.2012 26.543 82.9707 26.543C84.3105 26.543 84.9863 27.2988 84.998 28.8105V33H83.9141V28.8047C83.9102 28.3477 83.8047 28.0098 83.5977 27.791C83.3945 27.5723 83.0762 27.4629 82.6426 27.4629C82.291 27.4629 81.9824 27.5566 81.7168 27.7441C81.4512 27.9316 81.2441 28.1777 81.0957 28.4824V33H80.0117V24H81.0957V27.4277Z" fill="black"/>
<path d="M37.9834 109H36.7119V100.571L34.1621 101.508V100.359L37.7852 98.999H37.9834V109ZM46.125 107.038C46.125 106.696 45.9951 106.432 45.7354 106.245C45.4801 106.054 45.0312 105.89 44.3887 105.753C43.7507 105.616 43.2425 105.452 42.8643 105.261C42.4906 105.069 42.2126 104.841 42.0303 104.577C41.8525 104.313 41.7637 103.998 41.7637 103.634C41.7637 103.028 42.0189 102.515 42.5293 102.096C43.0443 101.676 43.7005 101.467 44.498 101.467C45.3366 101.467 46.0156 101.683 46.5352 102.116C47.0592 102.549 47.3213 103.103 47.3213 103.777H46.0498C46.0498 103.431 45.9017 103.132 45.6055 102.882C45.3138 102.631 44.9447 102.506 44.498 102.506C44.0378 102.506 43.6777 102.606 43.418 102.807C43.1582 103.007 43.0283 103.269 43.0283 103.593C43.0283 103.898 43.1491 104.128 43.3906 104.283C43.6322 104.438 44.0674 104.586 44.6963 104.728C45.3298 104.869 45.8424 105.037 46.2344 105.233C46.6263 105.429 46.9157 105.666 47.1025 105.944C47.2939 106.218 47.3896 106.553 47.3896 106.949C47.3896 107.61 47.1253 108.141 46.5967 108.542C46.068 108.938 45.3822 109.137 44.5391 109.137C43.9466 109.137 43.4225 109.032 42.9668 108.822C42.5111 108.613 42.1533 108.321 41.8936 107.947C41.6383 107.569 41.5107 107.161 41.5107 106.724H42.7754C42.7982 107.147 42.9668 107.485 43.2812 107.735C43.6003 107.981 44.0195 108.104 44.5391 108.104C45.0176 108.104 45.4004 108.009 45.6875 107.817C45.9792 107.621 46.125 107.362 46.125 107.038ZM50.7529 99.8125V101.604H52.1338V102.581H50.7529V107.168C50.7529 107.464 50.8145 107.688 50.9375 107.838C51.0605 107.984 51.2702 108.057 51.5664 108.057C51.7122 108.057 51.9128 108.029 52.168 107.975V109C51.8353 109.091 51.5117 109.137 51.1973 109.137C50.6322 109.137 50.2061 108.966 49.9189 108.624C49.6318 108.282 49.4883 107.797 49.4883 107.168V102.581H48.1416V101.604H49.4883V99.8125H50.7529Z" fill="black"/>
<path fill-rule="evenodd" clip-rule="evenodd" d="M43 77.164C54.0457 77.164 63 68.7919 63 58.4643C63 48.1368 54.0457 39.7646 43 39.7646C31.9543 39.7646 23 48.1368 23 58.4643C23 68.7919 31.9543 77.164 43 77.164Z" fill="#C4C4C4"/>
<path opacity="0.5" fill-rule="evenodd" clip-rule="evenodd" d="M103 77.164C114.046 77.164 123 68.7919 123 58.4643C123 48.1368 114.046 39.7646 103 39.7646C91.9543 39.7646 83 48.1368 83 58.4643C83 68.7919 91.9543 77.164 103 77.164Z" fill="#C4C4C4"/>
<path d="M95.666 103.408H96.6162C97.2132 103.399 97.6826 103.242 98.0244 102.937C98.3662 102.631 98.5371 102.219 98.5371 101.699C98.5371 100.533 97.9561 99.9492 96.7939 99.9492C96.2471 99.9492 95.8096 100.106 95.4814 100.421C95.1579 100.731 94.9961 101.143 94.9961 101.658H93.7314C93.7314 100.87 94.0186 100.216 94.5928 99.6963C95.1715 99.1722 95.9053 98.9102 96.7939 98.9102C97.7327 98.9102 98.4688 99.1585 99.002 99.6553C99.5352 100.152 99.8018 100.842 99.8018 101.727C99.8018 102.16 99.6605 102.579 99.3779 102.984C99.0999 103.39 98.7194 103.693 98.2363 103.894C98.7832 104.067 99.2048 104.354 99.501 104.755C99.8018 105.156 99.9521 105.646 99.9521 106.225C99.9521 107.118 99.6605 107.826 99.0771 108.351C98.4938 108.875 97.735 109.137 96.8008 109.137C95.8665 109.137 95.1055 108.884 94.5176 108.378C93.9342 107.872 93.6426 107.204 93.6426 106.375H94.9141C94.9141 106.899 95.085 107.318 95.4268 107.633C95.7686 107.947 96.2266 108.104 96.8008 108.104C97.4115 108.104 97.8786 107.945 98.2021 107.626C98.5257 107.307 98.6875 106.849 98.6875 106.252C98.6875 105.673 98.5098 105.229 98.1543 104.919C97.7988 104.609 97.2861 104.45 96.6162 104.44H95.666V103.408ZM105.394 102.738C105.202 102.706 104.995 102.69 104.771 102.69C103.942 102.69 103.379 103.044 103.083 103.75V109H101.818V101.604H103.049L103.069 102.458C103.484 101.797 104.072 101.467 104.833 101.467C105.079 101.467 105.266 101.499 105.394 101.562V102.738ZM106.118 105.24C106.118 104.105 106.387 103.194 106.925 102.506C107.463 101.813 108.167 101.467 109.037 101.467C109.903 101.467 110.589 101.763 111.095 102.355V98.5H112.359V109H111.197L111.136 108.207C110.63 108.827 109.926 109.137 109.023 109.137C108.167 109.137 107.467 108.786 106.925 108.084C106.387 107.382 106.118 106.466 106.118 105.336V105.24ZM107.383 105.384C107.383 106.222 107.556 106.879 107.902 107.353C108.249 107.826 108.727 108.063 109.338 108.063C110.14 108.063 110.726 107.703 111.095 106.983V103.586C110.716 102.889 110.135 102.54 109.352 102.54C108.732 102.54 108.249 102.779 107.902 103.258C107.556 103.736 107.383 104.445 107.383 105.384Z" fill="black"/>
</g>
<rect x="4.5" y="0.5" width="255" height="284" stroke="black"/>
</g>
<defs>
<filter id="filter0_d" x="0" y="0" width="264" height="293" filterUnits="userSpaceOnUse" color-interpolation-filters="sRGB">
<feFlood flood-opacity="0" result="BackgroundImageFix"/>
<feColorMatrix in="SourceAlpha" type="matrix" values="0 0 0 0 0 0 0 0 0 0 0 0 0 0 0 0 0 0 127 0"/>
<feOffset dy="4"/>
<feGaussianBlur stdDeviation="2"/>
<feColorMatrix type="matrix" values="0 0 0 0 0 0 0 0 0 0 0 0 0 0 0 0 0 0 0.25 0"/>
<feBlend mode="normal" in2="BackgroundImageFix" result="effect1_dropShadow"/>
<feBlend mode="normal" in="SourceGraphic" in2="effect1_dropShadow" result="shape"/>
</filter>
<filter id="filter1_d" x="-0.200195" y="222.8" width="264.4" height="87.4" filterUnits="userSpaceOnUse" color-interpolation-filters="sRGB">
<feFlood flood-opacity="0" result="BackgroundImageFix"/>
<feColorMatrix in="SourceAlpha" type="matrix" values="0 0 0 0 0 0 0 0 0 0 0 0 0 0 0 0 0 0 127 0"/>
<feOffset dy="4"/>
<feGaussianBlur stdDeviation="2"/>
<feColorMatrix type="matrix" values="0 0 0 0 0 0 0 0 0 0 0 0 0 0 0 0 0 0 0.25 0"/>
<feBlend mode="normal" in2="BackgroundImageFix" result="effect1_dropShadow"/>
<feBlend mode="normal" in="SourceGraphic" in2="effect1_dropShadow" result="shape"/>
</filter>
<clipPath id="clip0">
<rect x="4" width="256" height="285" fill="white"/>
</clipPath>
</defs>
</svg>
