<svg width="256" height="250" viewBox="0 0 256 250" fill="none" xmlns="http://www.w3.org/2000/svg">
<g clip-path="url(#clip0)">
<rect width="256" height="250" fill="white"/>
<g filter="url(#filter0_d)">
<rect x="0.5" y="0.5" width="255" height="133" fill="white" stroke="#C4C4C4"/>
<rect y="134" width="256" height="116" fill="white"/>
<rect x="0.25" y="134.25" width="255.5" height="115.5" stroke="black" stroke-opacity="0.5" stroke-width="0.5"/>
</g>
<path d="M33.3906 36.4648H26.2305V44H23.9805V26.9375H34.5508V28.7891H26.2305V34.625H33.3906V36.4648ZM44.3359 44C44.2109 43.75 44.1094 43.3047 44.0312 42.6641C43.0234 43.7109 41.8203 44.2344 40.4219 44.2344C39.1719 44.2344 38.1445 43.8828 37.3398 43.1797C36.543 42.4688 36.1445 41.5703 36.1445 40.4844C36.1445 39.1641 36.6445 38.1406 37.6445 37.4141C38.6523 36.6797 40.0664 36.3125 41.8867 36.3125H43.9961V35.3164C43.9961 34.5586 43.7695 33.957 43.3164 33.5117C42.8633 33.0586 42.1953 32.832 41.3125 32.832C40.5391 32.832 39.8906 33.0273 39.3672 33.418C38.8438 33.8086 38.582 34.2812 38.582 34.8359H36.4023C36.4023 34.2031 36.625 33.5938 37.0703 33.0078C37.5234 32.4141 38.1328 31.9453 38.8984 31.6016C39.6719 31.2578 40.5195 31.0859 41.4414 31.0859C42.9023 31.0859 44.0469 31.4531 44.875 32.1875C45.7031 32.9141 46.1328 33.918 46.1641 35.1992V41.0352C46.1641 42.1992 46.3125 43.125 46.6094 43.8125V44H44.3359ZM40.7383 42.3477C41.418 42.3477 42.0625 42.1719 42.6719 41.8203C43.2812 41.4688 43.7227 41.0117 43.9961 40.4492V37.8477H42.2969C39.6406 37.8477 38.3125 38.625 38.3125 40.1797C38.3125 40.8594 38.5391 41.3906 38.9922 41.7734C39.4453 42.1562 40.0273 42.3477 40.7383 42.3477ZM57.3906 42.7461C56.5469 43.7383 55.3086 44.2344 53.6758 44.2344C52.3242 44.2344 51.293 43.8438 50.582 43.0625C49.8789 42.2734 49.5234 41.1094 49.5156 39.5703V31.3203H51.6836V39.5117C51.6836 41.4336 52.4648 42.3945 54.0273 42.3945C55.6836 42.3945 56.7852 41.7773 57.332 40.543V31.3203H59.5V44H57.4375L57.3906 42.7461ZM65.1602 44H62.9922V26H65.1602V44ZM72.1797 38.1289L70.8203 39.5469V44H68.6523V26H70.8203V36.8867L71.9805 35.4922L75.9297 31.3203H78.5664L73.6328 36.6172L79.1406 44H76.5977L72.1797 38.1289ZM82.8555 31.3203L82.9258 32.9141C83.8945 31.6953 85.1602 31.0859 86.7227 31.0859C89.4023 31.0859 90.7539 32.5977 90.7773 35.6211V44H88.6094V35.6094C88.6016 34.6953 88.3906 34.0195 87.9766 33.582C87.5703 33.1445 86.9336 32.9258 86.0664 32.9258C85.3633 32.9258 84.7461 33.1133 84.2148 33.4883C83.6836 33.8633 83.2695 34.3555 82.9727 34.9648V44H80.8047V31.3203H82.8555ZM99.3086 44.2344C97.5898 44.2344 96.1914 43.6719 95.1133 42.5469C94.0352 41.4141 93.4961 39.9023 93.4961 38.0117V37.6133C93.4961 36.3555 93.7344 35.2344 94.2109 34.25C94.6953 33.2578 95.3672 32.4844 96.2266 31.9297C97.0938 31.3672 98.0312 31.0859 99.0391 31.0859C100.688 31.0859 101.969 31.6289 102.883 32.7148C103.797 33.8008 104.254 35.3555 104.254 37.3789V38.2812H95.6641C95.6953 39.5312 96.0586 40.543 96.7539 41.3164C97.457 42.082 98.3477 42.4648 99.4258 42.4648C100.191 42.4648 100.84 42.3086 101.371 41.9961C101.902 41.6836 102.367 41.2695 102.766 40.7539L104.09 41.7852C103.027 43.418 101.434 44.2344 99.3086 44.2344ZM99.0391 32.8672C98.1641 32.8672 97.4297 33.1875 96.8359 33.8281C96.2422 34.4609 95.875 35.3516 95.7344 36.5H102.086V36.3359C102.023 35.2344 101.727 34.3828 101.195 33.7812C100.664 33.1719 99.9453 32.8672 99.0391 32.8672ZM112.902 33.2656C112.574 33.2109 112.219 33.1836 111.836 33.1836C110.414 33.1836 109.449 33.7891 108.941 35V44H106.773V31.3203H108.883L108.918 32.7852C109.629 31.6523 110.637 31.0859 111.941 31.0859C112.363 31.0859 112.684 31.1406 112.902 31.25V33.2656ZM134.312 44H132.051L123.461 30.8516V44H121.199V26.9375H123.461L132.074 40.1445V26.9375H134.312V44ZM137.395 37.543C137.395 36.3008 137.637 35.1836 138.121 34.1914C138.613 33.1992 139.293 32.4336 140.16 31.8945C141.035 31.3555 142.031 31.0859 143.148 31.0859C144.875 31.0859 146.27 31.6836 147.332 32.8789C148.402 34.0742 148.938 35.6641 148.938 37.6484V37.8008C148.938 39.0352 148.699 40.1445 148.223 41.1289C147.754 42.1055 147.078 42.8672 146.195 43.4141C145.32 43.9609 144.312 44.2344 143.172 44.2344C141.453 44.2344 140.059 43.6367 138.988 42.4414C137.926 41.2461 137.395 39.6641 137.395 37.6953V37.543ZM139.574 37.8008C139.574 39.207 139.898 40.3359 140.547 41.1875C141.203 42.0391 142.078 42.4648 143.172 42.4648C144.273 42.4648 145.148 42.0352 145.797 41.1758C146.445 40.3086 146.77 39.0977 146.77 37.543C146.77 36.1523 146.438 35.0273 145.773 34.168C145.117 33.3008 144.242 32.8672 143.148 32.8672C142.078 32.8672 141.215 33.293 140.559 34.1445C139.902 34.9961 139.574 36.2148 139.574 37.8008ZM154.598 28.25V31.3203H156.965V32.9961H154.598V40.8594C154.598 41.3672 154.703 41.75 154.914 42.0078C155.125 42.2578 155.484 42.3828 155.992 42.3828C156.242 42.3828 156.586 42.3359 157.023 42.2422V44C156.453 44.1562 155.898 44.2344 155.359 44.2344C154.391 44.2344 153.66 43.9414 153.168 43.3555C152.676 42.7695 152.43 41.9375 152.43 40.8594V32.9961H150.121V31.3203H152.43V28.25H154.598ZM164.77 44.2344C163.051 44.2344 161.652 43.6719 160.574 42.5469C159.496 41.4141 158.957 39.9023 158.957 38.0117V37.6133C158.957 36.3555 159.195 35.2344 159.672 34.25C160.156 33.2578 160.828 32.4844 161.688 31.9297C162.555 31.3672 163.492 31.0859 164.5 31.0859C166.148 31.0859 167.43 31.6289 168.344 32.7148C169.258 33.8008 169.715 35.3555 169.715 37.3789V38.2812H161.125C161.156 39.5312 161.52 40.543 162.215 41.3164C162.918 42.082 163.809 42.4648 164.887 42.4648C165.652 42.4648 166.301 42.3086 166.832 41.9961C167.363 41.6836 167.828 41.2695 168.227 40.7539L169.551 41.7852C168.488 43.418 166.895 44.2344 164.77 44.2344ZM164.5 32.8672C163.625 32.8672 162.891 33.1875 162.297 33.8281C161.703 34.4609 161.336 35.3516 161.195 36.5H167.547V36.3359C167.484 35.2344 167.188 34.3828 166.656 33.7812C166.125 33.1719 165.406 32.8672 164.5 32.8672ZM179.617 40.6367C179.617 40.0508 179.395 39.5977 178.949 39.2773C178.512 38.9492 177.742 38.668 176.641 38.4336C175.547 38.1992 174.676 37.918 174.027 37.5898C173.387 37.2617 172.91 36.8711 172.598 36.418C172.293 35.9648 172.141 35.4258 172.141 34.8008C172.141 33.7617 172.578 32.8828 173.453 32.1641C174.336 31.4453 175.461 31.0859 176.828 31.0859C178.266 31.0859 179.43 31.457 180.32 32.1992C181.219 32.9414 181.668 33.8906 181.668 35.0469H179.488C179.488 34.4531 179.234 33.9414 178.727 33.5117C178.227 33.082 177.594 32.8672 176.828 32.8672C176.039 32.8672 175.422 33.0391 174.977 33.3828C174.531 33.7266 174.309 34.1758 174.309 34.7305C174.309 35.2539 174.516 35.6484 174.93 35.9141C175.344 36.1797 176.09 36.4336 177.168 36.6758C178.254 36.918 179.133 37.207 179.805 37.543C180.477 37.8789 180.973 38.2852 181.293 38.7617C181.621 39.2305 181.785 39.8047 181.785 40.4844C181.785 41.6172 181.332 42.5273 180.426 43.2148C179.52 43.8945 178.344 44.2344 176.898 44.2344C175.883 44.2344 174.984 44.0547 174.203 43.6953C173.422 43.3359 172.809 42.8359 172.363 42.1953C171.926 41.5469 171.707 40.8477 171.707 40.0977H173.875C173.914 40.8242 174.203 41.4023 174.742 41.832C175.289 42.2539 176.008 42.4648 176.898 42.4648C177.719 42.4648 178.375 42.3008 178.867 41.9727C179.367 41.6367 179.617 41.1914 179.617 40.6367Z" fill="black"/>
<path d="M17.7959 150.88C16.7507 150.58 15.9889 150.212 15.5107 149.776C15.0368 149.336 14.7998 148.794 14.7998 148.151C14.7998 147.423 15.0897 146.822 15.6694 146.348C16.2534 145.87 17.0109 145.631 17.9419 145.631C18.5767 145.631 19.1416 145.754 19.6367 145.999C20.1361 146.244 20.5212 146.583 20.792 147.015C21.0671 147.446 21.2046 147.918 21.2046 148.43H19.9795C19.9795 147.872 19.8018 147.434 19.4463 147.116C19.0908 146.795 18.5894 146.634 17.9419 146.634C17.341 146.634 16.8713 146.767 16.5327 147.034C16.1984 147.296 16.0312 147.662 16.0312 148.132C16.0312 148.508 16.1899 148.828 16.5073 149.09C16.8289 149.348 17.3727 149.585 18.1387 149.801C18.9089 150.017 19.5098 150.256 19.9414 150.519C20.3773 150.777 20.6989 151.079 20.9062 151.426C21.1178 151.773 21.2236 152.182 21.2236 152.651C21.2236 153.4 20.9316 154.001 20.3477 154.454C19.7637 154.903 18.9829 155.127 18.0054 155.127C17.3706 155.127 16.7782 155.006 16.228 154.765C15.6779 154.52 15.2526 154.185 14.9521 153.762C14.6559 153.339 14.5078 152.859 14.5078 152.321H15.7329C15.7329 152.88 15.9382 153.322 16.3486 153.648C16.7633 153.97 17.3156 154.13 18.0054 154.13C18.6486 154.13 19.1416 153.999 19.4844 153.737C19.8271 153.474 19.9985 153.117 19.9985 152.664C19.9985 152.211 19.8398 151.862 19.5225 151.617C19.2051 151.367 18.6296 151.122 17.7959 150.88ZM23.7817 148.963C24.3022 148.324 24.9793 148.005 25.813 148.005C27.2645 148.005 27.9966 148.824 28.0093 150.461V155H26.835V150.455C26.8307 149.96 26.7165 149.594 26.4922 149.357C26.2721 149.12 25.9272 149.001 25.4575 149.001C25.0767 149.001 24.7424 149.103 24.4546 149.306C24.1668 149.509 23.9425 149.776 23.7817 150.106V155H22.6074V145.25H23.7817V148.963ZM34.0078 155C33.9401 154.865 33.8851 154.623 33.8428 154.276C33.2969 154.843 32.6452 155.127 31.8877 155.127C31.2106 155.127 30.6541 154.937 30.2183 154.556C29.7866 154.171 29.5708 153.684 29.5708 153.096C29.5708 152.381 29.8416 151.826 30.3833 151.433C30.9292 151.035 31.6951 150.836 32.6812 150.836H33.8237V150.296C33.8237 149.886 33.701 149.56 33.4556 149.319C33.2101 149.073 32.8483 148.951 32.3701 148.951C31.9512 148.951 31.5999 149.056 31.3164 149.268C31.0329 149.48 30.8911 149.736 30.8911 150.036H29.7104C29.7104 149.693 29.8311 149.363 30.0723 149.046C30.3177 148.724 30.6478 148.47 31.0625 148.284C31.4814 148.098 31.9406 148.005 32.4399 148.005C33.2313 148.005 33.8512 148.204 34.2998 148.602C34.7484 148.995 34.9811 149.539 34.998 150.233V153.394C34.998 154.025 35.0785 154.526 35.2393 154.898V155H34.0078ZM32.0591 154.105C32.4272 154.105 32.7764 154.01 33.1064 153.819C33.4365 153.629 33.6756 153.381 33.8237 153.077V151.667H32.9033C31.4645 151.667 30.7451 152.089 30.7451 152.931C30.7451 153.299 30.8678 153.587 31.1133 153.794C31.3587 154.001 31.674 154.105 32.0591 154.105ZM40.1587 149.186C39.981 149.156 39.7884 149.141 39.5811 149.141C38.8109 149.141 38.2882 149.469 38.0132 150.125V155H36.8389V148.132H37.9814L38.0005 148.925C38.3856 148.312 38.9315 148.005 39.6382 148.005C39.8667 148.005 40.0402 148.035 40.1587 148.094V149.186ZM43.9673 155.127C43.0363 155.127 42.2788 154.822 41.6948 154.213C41.1108 153.599 40.8188 152.78 40.8188 151.756V151.541C40.8188 150.859 40.9479 150.252 41.2061 149.719C41.4684 149.181 41.8324 148.762 42.2979 148.462C42.7676 148.157 43.2754 148.005 43.8213 148.005C44.7142 148.005 45.4082 148.299 45.9033 148.887C46.3984 149.475 46.646 150.318 46.646 151.414V151.902H41.9932C42.0101 152.579 42.2069 153.127 42.5835 153.546C42.9644 153.961 43.4468 154.168 44.0308 154.168C44.4455 154.168 44.7967 154.084 45.0845 153.915C45.3722 153.745 45.624 153.521 45.8398 153.242L46.5571 153.8C45.9816 154.685 45.1183 155.127 43.9673 155.127ZM43.8213 148.97C43.3473 148.97 42.9495 149.143 42.6279 149.49C42.3063 149.833 42.1074 150.315 42.0312 150.938H45.4717V150.849C45.4378 150.252 45.277 149.791 44.9893 149.465C44.7015 149.135 44.3122 148.97 43.8213 148.97ZM47.7251 151.509C47.7251 150.455 47.9748 149.609 48.4741 148.97C48.9735 148.326 49.6273 148.005 50.4355 148.005C51.2396 148.005 51.8765 148.28 52.3462 148.83V145.25H53.5205V155H52.4414L52.3843 154.264C51.9146 154.839 51.2607 155.127 50.4229 155.127C49.6273 155.127 48.9777 154.801 48.4741 154.149C47.9748 153.498 47.7251 152.647 47.7251 151.598V151.509ZM48.8994 151.642C48.8994 152.421 49.0602 153.03 49.3818 153.47C49.7035 153.91 50.1478 154.13 50.7148 154.13C51.4596 154.13 52.0034 153.796 52.3462 153.127V149.973C51.995 149.325 51.4554 149.001 50.7275 149.001C50.152 149.001 49.7035 149.224 49.3818 149.668C49.0602 150.112 48.8994 150.77 48.8994 151.642ZM64.6543 153.381L65.9746 148.132H67.1489L65.1494 155H64.1973L62.5278 149.795L60.9028 155H59.9507L57.9575 148.132H59.1255L60.4775 153.273L62.0771 148.132H63.0229L64.6543 153.381ZM69.6245 155H68.4502V148.132H69.6245V155ZM68.355 146.31C68.355 146.12 68.4121 145.959 68.5264 145.828C68.6449 145.696 68.8184 145.631 69.0469 145.631C69.2754 145.631 69.4489 145.696 69.5674 145.828C69.6859 145.959 69.7451 146.12 69.7451 146.31C69.7451 146.5 69.6859 146.659 69.5674 146.786C69.4489 146.913 69.2754 146.977 69.0469 146.977C68.8184 146.977 68.6449 146.913 68.5264 146.786C68.4121 146.659 68.355 146.5 68.355 146.31ZM73.103 146.469V148.132H74.3853V149.04H73.103V153.299C73.103 153.574 73.1602 153.781 73.2744 153.921C73.3887 154.056 73.5833 154.124 73.8584 154.124C73.9938 154.124 74.18 154.099 74.417 154.048V155C74.1081 155.085 73.8076 155.127 73.5156 155.127C72.9909 155.127 72.5952 154.968 72.3286 154.651C72.062 154.333 71.9287 153.883 71.9287 153.299V149.04H70.6782V148.132H71.9287V146.469H73.103ZM76.937 148.963C77.4575 148.324 78.1346 148.005 78.9683 148.005C80.4198 148.005 81.1519 148.824 81.1646 150.461V155H79.9902V150.455C79.986 149.96 79.8717 149.594 79.6475 149.357C79.4274 149.12 79.0825 149.001 78.6128 149.001C78.2319 149.001 77.8976 149.103 77.6099 149.306C77.3221 149.509 77.0978 149.776 76.937 150.106V155H75.7627V145.25H76.937V148.963Z" fill="black"/>
<path d="M25.6274 228H24.4468V220.173L22.0791 221.043V219.977L25.4434 218.713H25.6274V228ZM33.1875 226.178C33.1875 225.861 33.0669 225.615 32.8257 225.442C32.5887 225.264 32.1719 225.112 31.5752 224.985C30.9827 224.858 30.5109 224.706 30.1597 224.528C29.8127 224.35 29.5545 224.139 29.3853 223.893C29.2202 223.648 29.1377 223.356 29.1377 223.017C29.1377 222.454 29.3747 221.978 29.8486 221.589C30.3268 221.2 30.9362 221.005 31.6768 221.005C32.4554 221.005 33.0859 221.206 33.5684 221.608C34.055 222.01 34.2983 222.524 34.2983 223.15H33.1177C33.1177 222.829 32.9801 222.552 32.7051 222.319C32.4342 222.086 32.0915 221.97 31.6768 221.97C31.2493 221.97 30.915 222.063 30.6738 222.249C30.4326 222.435 30.312 222.679 30.312 222.979C30.312 223.263 30.4242 223.476 30.6484 223.62C30.8727 223.764 31.2769 223.902 31.8608 224.033C32.4491 224.164 32.9251 224.32 33.2891 224.502C33.653 224.684 33.9217 224.904 34.0952 225.163C34.2729 225.417 34.3618 225.728 34.3618 226.096C34.3618 226.709 34.1164 227.202 33.6255 227.575C33.1346 227.943 32.4977 228.127 31.7148 228.127C31.1647 228.127 30.6781 228.03 30.2549 227.835C29.8317 227.64 29.4995 227.369 29.2583 227.022C29.0213 226.671 28.9028 226.292 28.9028 225.886H30.0771C30.0983 226.28 30.2549 226.593 30.5469 226.826C30.8431 227.054 31.2324 227.168 31.7148 227.168C32.1592 227.168 32.5146 227.08 32.7812 226.902C33.0521 226.72 33.1875 226.479 33.1875 226.178ZM37.4849 219.469V221.132H38.7671V222.04H37.4849V226.299C37.4849 226.574 37.542 226.781 37.6562 226.921C37.7705 227.056 37.9652 227.124 38.2402 227.124C38.3757 227.124 38.5618 227.099 38.7988 227.048V228C38.4899 228.085 38.1895 228.127 37.8975 228.127C37.3727 228.127 36.9771 227.968 36.7104 227.651C36.4438 227.333 36.3105 226.883 36.3105 226.299V222.04H35.0601V221.132H36.3105V219.469H37.4849Z" fill="black"/>
<path d="M67.4756 221.808H68.3579C68.9123 221.799 69.3481 221.653 69.6655 221.37C69.9829 221.086 70.1416 220.703 70.1416 220.221C70.1416 219.137 69.6021 218.596 68.5229 218.596C68.0151 218.596 67.6089 218.742 67.3042 219.034C67.0037 219.321 66.8535 219.704 66.8535 220.183H65.6792C65.6792 219.451 65.9458 218.843 66.479 218.361C67.0164 217.874 67.6978 217.631 68.5229 217.631C69.3947 217.631 70.0781 217.861 70.5732 218.323C71.0684 218.784 71.3159 219.425 71.3159 220.246C71.3159 220.648 71.1847 221.037 70.9224 221.414C70.6642 221.791 70.3109 222.072 69.8623 222.258C70.3701 222.419 70.7616 222.686 71.0366 223.058C71.3159 223.431 71.4556 223.885 71.4556 224.423C71.4556 225.252 71.1847 225.91 70.6431 226.397C70.1014 226.884 69.3968 227.127 68.5293 227.127C67.6618 227.127 66.9551 226.892 66.4092 226.422C65.8675 225.953 65.5967 225.333 65.5967 224.562H66.7773C66.7773 225.049 66.936 225.438 67.2534 225.73C67.5708 226.022 67.9961 226.168 68.5293 226.168C69.0964 226.168 69.5301 226.02 69.8306 225.724C70.131 225.428 70.2812 225.003 70.2812 224.448C70.2812 223.911 70.1162 223.498 69.7861 223.21C69.4561 222.923 68.98 222.775 68.3579 222.766H67.4756V221.808ZM76.5083 221.186C76.3306 221.156 76.138 221.141 75.9307 221.141C75.1605 221.141 74.6379 221.469 74.3628 222.125V227H73.1885V220.132H74.3311L74.3501 220.925C74.7352 220.312 75.2811 220.005 75.9878 220.005C76.2163 220.005 76.3898 220.035 76.5083 220.094V221.186ZM77.1812 223.509C77.1812 222.455 77.4308 221.609 77.9302 220.97C78.4295 220.326 79.0833 220.005 79.8916 220.005C80.6956 220.005 81.3325 220.28 81.8022 220.83V217.25H82.9766V227H81.8975L81.8403 226.264C81.3706 226.839 80.7168 227.127 79.8789 227.127C79.0833 227.127 78.4338 226.801 77.9302 226.149C77.4308 225.498 77.1812 224.647 77.1812 223.598V223.509ZM78.3555 223.642C78.3555 224.421 78.5163 225.03 78.8379 225.47C79.1595 225.91 79.6038 226.13 80.1709 226.13C80.9157 226.13 81.4595 225.796 81.8022 225.127V221.973C81.451 221.325 80.9115 221.001 80.1836 221.001C79.6081 221.001 79.1595 221.224 78.8379 221.668C78.5163 222.112 78.3555 222.77 78.3555 223.642Z" fill="black"/>
<path d="M124.726 224.896H126.008V225.854H124.726V228H123.545V225.854H119.336V225.163L123.475 218.758H124.726V224.896ZM120.669 224.896H123.545V220.364L123.405 220.618L120.669 224.896ZM128.782 219.469V221.132H130.064V222.04H128.782V226.299C128.782 226.574 128.839 226.781 128.953 226.921C129.067 227.056 129.262 227.124 129.537 227.124C129.673 227.124 129.859 227.099 130.096 227.048V228C129.787 228.085 129.486 228.127 129.194 228.127C128.67 228.127 128.274 227.968 128.007 227.651C127.741 227.333 127.607 226.883 127.607 226.299V222.04H126.357V221.132H127.607V219.469H128.782ZM132.616 221.963C133.136 221.324 133.813 221.005 134.647 221.005C136.098 221.005 136.831 221.824 136.843 223.461V228H135.669V223.455C135.665 222.96 135.55 222.594 135.326 222.357C135.106 222.12 134.761 222.001 134.292 222.001C133.911 222.001 133.576 222.103 133.289 222.306C133.001 222.509 132.777 222.776 132.616 223.106V228H131.441V218.25H132.616V221.963Z" fill="black"/>
<path d="M177.735 219.418L173.907 228H172.676L176.491 219.723H171.489V218.758H177.735V219.418ZM180.782 219.469V221.132H182.064V222.04H180.782V226.299C180.782 226.574 180.839 226.781 180.953 226.921C181.067 227.056 181.262 227.124 181.537 227.124C181.673 227.124 181.859 227.099 182.096 227.048V228C181.787 228.085 181.486 228.127 181.194 228.127C180.67 228.127 180.274 227.968 180.007 227.651C179.741 227.333 179.607 226.883 179.607 226.299V222.04H178.357V221.132H179.607V219.469H180.782ZM184.616 221.963C185.136 221.324 185.813 221.005 186.647 221.005C188.098 221.005 188.831 221.824 188.843 223.461V228H187.669V223.455C187.665 222.96 187.55 222.594 187.326 222.357C187.106 222.12 186.761 222.001 186.292 222.001C185.911 222.001 185.576 222.103 185.289 222.306C185.001 222.509 184.777 222.776 184.616 223.106V228H183.441V218.25H184.616V221.963Z" fill="black"/>
<path d="M25.7959 59.8804C24.7507 59.5799 23.9889 59.2118 23.5107 58.7759C23.0368 58.3358 22.7998 57.7941 22.7998 57.1509C22.7998 56.423 23.0897 55.8221 23.6694 55.3481C24.2534 54.87 25.0109 54.6309 25.9419 54.6309C26.5767 54.6309 27.1416 54.7536 27.6367 54.999C28.1361 55.2445 28.5212 55.583 28.792 56.0146C29.0671 56.4463 29.2046 56.9181 29.2046 57.4302H27.9795C27.9795 56.8716 27.8018 56.4336 27.4463 56.1162C27.0908 55.7946 26.5894 55.6338 25.9419 55.6338C25.341 55.6338 24.8713 55.7671 24.5327 56.0337C24.1984 56.2961 24.0312 56.6621 24.0312 57.1318C24.0312 57.5085 24.1899 57.828 24.5073 58.0903C24.8289 58.3485 25.3727 58.5854 26.1387 58.8013C26.9089 59.0171 27.5098 59.2562 27.9414 59.5186C28.3773 59.7767 28.6989 60.0793 28.9062 60.4263C29.1178 60.7733 29.2236 61.1816 29.2236 61.6514C29.2236 62.4004 28.9316 63.0013 28.3477 63.4541C27.7637 63.9027 26.9829 64.127 26.0054 64.127C25.3706 64.127 24.7782 64.0063 24.228 63.7651C23.6779 63.5197 23.2526 63.1854 22.9521 62.7622C22.6559 62.339 22.5078 61.8587 22.5078 61.3213H23.7329C23.7329 61.8799 23.9382 62.3221 24.3486 62.6479C24.7633 62.9696 25.3156 63.1304 26.0054 63.1304C26.6486 63.1304 27.1416 62.9992 27.4844 62.7368C27.8271 62.4744 27.9985 62.1169 27.9985 61.6641C27.9985 61.2113 27.8398 60.8621 27.5225 60.6167C27.2051 60.367 26.6296 60.1216 25.7959 59.8804ZM33.4575 64.127C32.5265 64.127 31.769 63.8223 31.1851 63.2129C30.6011 62.5993 30.3091 61.7804 30.3091 60.7563V60.5405C30.3091 59.8592 30.4382 59.252 30.6963 58.7188C30.9587 58.1813 31.3226 57.7624 31.7881 57.4619C32.2578 57.1572 32.7656 57.0049 33.3115 57.0049C34.2044 57.0049 34.8984 57.299 35.3936 57.8872C35.8887 58.4754 36.1362 59.3175 36.1362 60.4136V60.9023H31.4834C31.5003 61.5794 31.6971 62.1274 32.0737 62.5464C32.4546 62.9611 32.937 63.1685 33.521 63.1685C33.9357 63.1685 34.2869 63.0838 34.5747 62.9146C34.8625 62.7453 35.1143 62.521 35.3301 62.2417L36.0474 62.8003C35.4718 63.6847 34.6086 64.127 33.4575 64.127ZM33.3115 57.9697C32.8376 57.9697 32.4398 58.1432 32.1182 58.4902C31.7965 58.833 31.5977 59.3154 31.5215 59.9375H34.9619V59.8486C34.9281 59.252 34.7673 58.7907 34.4795 58.4648C34.1917 58.1348 33.8024 57.9697 33.3115 57.9697ZM43.3027 60.6421C43.3027 61.6873 43.0636 62.5295 42.5854 63.1685C42.1073 63.8075 41.4598 64.127 40.6431 64.127C39.8094 64.127 39.1535 63.8625 38.6753 63.3335V66.6406H37.501V57.1318H38.5737L38.6309 57.8936C39.109 57.3011 39.7734 57.0049 40.624 57.0049C41.4492 57.0049 42.1009 57.3159 42.5791 57.938C43.0615 58.5601 43.3027 59.4255 43.3027 60.5342V60.6421ZM42.1284 60.5088C42.1284 59.7344 41.9634 59.1229 41.6333 58.6743C41.3032 58.2257 40.8504 58.0015 40.2749 58.0015C39.564 58.0015 39.0308 58.3167 38.6753 58.9473V62.229C39.0265 62.8553 39.564 63.1685 40.2876 63.1685C40.8504 63.1685 41.2969 62.9463 41.627 62.502C41.9613 62.0534 42.1284 61.389 42.1284 60.5088ZM46.394 55.4688V57.1318H47.6763V58.0396H46.394V62.2988C46.394 62.5739 46.4512 62.7812 46.5654 62.9209C46.6797 63.0563 46.8743 63.124 47.1494 63.124C47.2848 63.124 47.471 63.0986 47.708 63.0479V64C47.3991 64.0846 47.0986 64.127 46.8066 64.127C46.2819 64.127 45.8862 63.9683 45.6196 63.6509C45.353 63.3335 45.2197 62.8828 45.2197 62.2988V58.0396H43.9692V57.1318H45.2197V55.4688H46.394ZM57.1152 60.896H58.3975V61.8545H57.1152V64H55.9346V61.8545H51.7261V61.1626L55.8647 54.7578H57.1152V60.896ZM53.0591 60.896H55.9346V56.3638L55.7949 56.6177L53.0591 60.896ZM59.54 65.8408L58.8735 65.3838C59.2713 64.8294 59.4787 64.2581 59.4956 63.6699V62.6099H60.6445V63.5303C60.6445 63.9577 60.5387 64.3851 60.3271 64.8125C60.1198 65.2399 59.8574 65.5827 59.54 65.8408ZM71.2896 64H65.2339V63.1558L68.4331 59.6011C68.9071 59.0636 69.2329 58.6278 69.4106 58.2935C69.5926 57.9549 69.6836 57.6058 69.6836 57.2461C69.6836 56.7637 69.5376 56.368 69.2456 56.0591C68.9536 55.7502 68.5643 55.5957 68.0776 55.5957C67.4937 55.5957 67.0387 55.7629 66.7129 56.0972C66.3913 56.4272 66.2305 56.8885 66.2305 57.481H65.0562C65.0562 56.6304 65.3291 55.9427 65.875 55.418C66.4251 54.8932 67.1593 54.6309 68.0776 54.6309C68.9367 54.6309 69.6159 54.8573 70.1152 55.3101C70.6146 55.7586 70.8643 56.3574 70.8643 57.1064C70.8643 58.0163 70.2845 59.0996 69.125 60.3564L66.6494 63.0415H71.2896V64ZM78.3291 60.0581C78.3291 61.4334 78.0942 62.4554 77.6245 63.124C77.1548 63.7926 76.4206 64.127 75.4219 64.127C74.4359 64.127 73.7059 63.8011 73.2319 63.1494C72.758 62.4935 72.5125 61.516 72.4956 60.2168V58.6489C72.4956 57.2905 72.7305 56.2812 73.2002 55.6211C73.6699 54.9609 74.4062 54.6309 75.4092 54.6309C76.4036 54.6309 77.1357 54.9504 77.6055 55.5894C78.0752 56.2241 78.3164 57.2059 78.3291 58.5347V60.0581ZM77.1548 58.4521C77.1548 57.4577 77.0151 56.734 76.7358 56.2812C76.4565 55.8242 76.0143 55.5957 75.4092 55.5957C74.8083 55.5957 74.3703 55.8221 74.0952 56.2749C73.8201 56.7277 73.6784 57.4238 73.6699 58.3633V60.2422C73.6699 61.2409 73.8138 61.9793 74.1016 62.4575C74.3936 62.9315 74.8337 63.1685 75.4219 63.1685C76.0016 63.1685 76.4312 62.9442 76.7104 62.4956C76.994 62.047 77.1421 61.3403 77.1548 60.3755V58.4521ZM83.6929 64H82.5122V56.1733L80.1445 57.043V55.9766L83.5088 54.7134H83.6929V64ZM91.6338 59.9375C91.3883 60.2295 91.0942 60.4644 90.7515 60.6421C90.4129 60.8198 90.0405 60.9087 89.6343 60.9087C89.1011 60.9087 88.6356 60.7775 88.2378 60.5151C87.8442 60.2528 87.5396 59.8846 87.3237 59.4106C87.1079 58.9325 87 58.4056 87 57.8301C87 57.2122 87.1164 56.6558 87.3491 56.1606C87.5861 55.6655 87.9204 55.2868 88.3521 55.0244C88.7837 54.762 89.2873 54.6309 89.8628 54.6309C90.7769 54.6309 91.4963 54.9736 92.021 55.6592C92.55 56.3405 92.8145 57.2715 92.8145 58.4521V58.7949C92.8145 60.5934 92.459 61.9074 91.748 62.7368C91.0371 63.562 89.9644 63.9852 88.5298 64.0063H88.3013V63.0161H88.5488C89.5179 62.9992 90.2627 62.7474 90.7832 62.2607C91.3037 61.7699 91.5872 60.9954 91.6338 59.9375ZM89.8247 59.9375C90.2183 59.9375 90.5801 59.8169 90.9102 59.5757C91.2445 59.3345 91.4878 59.0361 91.6401 58.6807V58.2109C91.6401 57.4408 91.473 56.8145 91.1387 56.332C90.8044 55.8496 90.3812 55.6084 89.8691 55.6084C89.3529 55.6084 88.9382 55.8073 88.625 56.2051C88.3118 56.5986 88.1553 57.1191 88.1553 57.7666C88.1553 58.3971 88.3055 58.9176 88.606 59.3281C88.9106 59.7344 89.3169 59.9375 89.8247 59.9375Z" fill="black"/>
<path fill-rule="evenodd" clip-rule="evenodd" d="M30 207C41.0457 207 50 198.046 50 187C50 175.954 41.0457 167 30 167C18.9543 167 10 175.954 10 187C10 198.046 18.9543 207 30 207Z" fill="#C4C4C4"/>
<path opacity="0.5" fill-rule="evenodd" clip-rule="evenodd" d="M78 207C89.0457 207 98 198.046 98 187C98 175.954 89.0457 167 78 167C66.9543 167 58 175.954 58 187C58 198.046 66.9543 207 78 207Z" fill="#C4C4C4"/>
<path fill-rule="evenodd" clip-rule="evenodd" d="M132 205C143.046 205 152 196.046 152 185C152 173.954 143.046 165 132 165C120.954 165 112 173.954 112 185C112 196.046 120.954 205 132 205Z" fill="#979797"/>
<path fill-rule="evenodd" clip-rule="evenodd" d="M186 207C197.046 207 206 198.046 206 187C206 175.954 197.046 167 186 167C174.954 167 166 175.954 166 187C166 198.046 174.954 207 186 207Z" fill="#C4C4C4" fill-opacity="0.8"/>
<rect x="58.5" y="78.5" width="139" height="31" rx="9.5" fill="white" stroke="black"/>
<path d="M108.629 100.012L113.504 85.9375H115.965L109.637 103H107.645L101.328 85.9375H103.777L108.629 100.012ZM120.277 103H118.109V90.3203H120.277V103ZM117.934 86.957C117.934 86.6055 118.039 86.3086 118.25 86.0664C118.469 85.8242 118.789 85.7031 119.211 85.7031C119.633 85.7031 119.953 85.8242 120.172 86.0664C120.391 86.3086 120.5 86.6055 120.5 86.957C120.5 87.3086 120.391 87.6016 120.172 87.8359C119.953 88.0703 119.633 88.1875 119.211 88.1875C118.789 88.1875 118.469 88.0703 118.25 87.8359C118.039 87.6016 117.934 87.3086 117.934 86.957ZM129.02 103.234C127.301 103.234 125.902 102.672 124.824 101.547C123.746 100.414 123.207 98.9023 123.207 97.0117V96.6133C123.207 95.3555 123.445 94.2344 123.922 93.25C124.406 92.2578 125.078 91.4844 125.938 90.9297C126.805 90.3672 127.742 90.0859 128.75 90.0859C130.398 90.0859 131.68 90.6289 132.594 91.7148C133.508 92.8008 133.965 94.3555 133.965 96.3789V97.2812H125.375C125.406 98.5312 125.77 99.543 126.465 100.316C127.168 101.082 128.059 101.465 129.137 101.465C129.902 101.465 130.551 101.309 131.082 100.996C131.613 100.684 132.078 100.27 132.477 99.7539L133.801 100.785C132.738 102.418 131.145 103.234 129.02 103.234ZM128.75 91.8672C127.875 91.8672 127.141 92.1875 126.547 92.8281C125.953 93.4609 125.586 94.3516 125.445 95.5H131.797V95.3359C131.734 94.2344 131.438 93.3828 130.906 92.7812C130.375 92.1719 129.656 91.8672 128.75 91.8672ZM147.711 100.012L150.148 90.3203H152.316L148.625 103H146.867L143.785 93.3906L140.785 103H139.027L135.348 90.3203H137.504L140 99.8125L142.953 90.3203H144.699L147.711 100.012Z" fill="black"/>
<rect x="74.5" y="122.5" width="108" height="20" rx="9.5" fill="#C4C4C4" stroke="white"/>
<path d="M124.504 133.197C123.539 132.92 122.836 132.58 122.395 132.178C121.957 131.771 121.738 131.271 121.738 130.678C121.738 130.006 122.006 129.451 122.541 129.014C123.08 128.572 123.779 128.352 124.639 128.352C125.225 128.352 125.746 128.465 126.203 128.691C126.664 128.918 127.02 129.23 127.27 129.629C127.523 130.027 127.65 130.463 127.65 130.936H126.52C126.52 130.42 126.355 130.016 126.027 129.723C125.699 129.426 125.236 129.277 124.639 129.277C124.084 129.277 123.65 129.4 123.338 129.646C123.029 129.889 122.875 130.227 122.875 130.66C122.875 131.008 123.021 131.303 123.314 131.545C123.611 131.783 124.113 132.002 124.82 132.201C125.531 132.4 126.086 132.621 126.484 132.863C126.887 133.102 127.184 133.381 127.375 133.701C127.57 134.021 127.668 134.398 127.668 134.832C127.668 135.523 127.398 136.078 126.859 136.496C126.32 136.91 125.6 137.117 124.697 137.117C124.111 137.117 123.564 137.006 123.057 136.783C122.549 136.557 122.156 136.248 121.879 135.857C121.605 135.467 121.469 135.023 121.469 134.527H122.6C122.6 135.043 122.789 135.451 123.168 135.752C123.551 136.049 124.061 136.197 124.697 136.197C125.291 136.197 125.746 136.076 126.062 135.834C126.379 135.592 126.537 135.262 126.537 134.844C126.537 134.426 126.391 134.104 126.098 133.877C125.805 133.646 125.273 133.42 124.504 133.197ZM130.029 131.428C130.51 130.838 131.135 130.543 131.904 130.543C133.244 130.543 133.92 131.299 133.932 132.811V137H132.848V132.805C132.844 132.348 132.738 132.01 132.531 131.791C132.328 131.572 132.01 131.463 131.576 131.463C131.225 131.463 130.916 131.557 130.65 131.744C130.385 131.932 130.178 132.178 130.029 132.482V137H128.945V128H130.029V131.428ZM139.469 137C139.406 136.875 139.355 136.652 139.316 136.332C138.812 136.855 138.211 137.117 137.512 137.117C136.887 137.117 136.373 136.941 135.971 136.59C135.572 136.234 135.373 135.785 135.373 135.242C135.373 134.582 135.623 134.07 136.123 133.707C136.627 133.34 137.334 133.156 138.244 133.156H139.299V132.658C139.299 132.279 139.186 131.979 138.959 131.756C138.732 131.529 138.398 131.416 137.957 131.416C137.57 131.416 137.246 131.514 136.984 131.709C136.723 131.904 136.592 132.141 136.592 132.418H135.502C135.502 132.102 135.613 131.797 135.836 131.504C136.062 131.207 136.367 130.973 136.75 130.801C137.137 130.629 137.561 130.543 138.021 130.543C138.752 130.543 139.324 130.727 139.738 131.094C140.152 131.457 140.367 131.959 140.383 132.6V135.518C140.383 136.1 140.457 136.562 140.605 136.906V137H139.469ZM137.67 136.174C138.01 136.174 138.332 136.086 138.637 135.91C138.941 135.734 139.162 135.506 139.299 135.225V133.924H138.449C137.121 133.924 136.457 134.312 136.457 135.09C136.457 135.43 136.57 135.695 136.797 135.887C137.023 136.078 137.314 136.174 137.67 136.174ZM145.146 131.633C144.982 131.605 144.805 131.592 144.613 131.592C143.902 131.592 143.42 131.895 143.166 132.5V137H142.082V130.66H143.137L143.154 131.393C143.51 130.826 144.014 130.543 144.666 130.543C144.877 130.543 145.037 130.57 145.146 130.625V131.633ZM148.662 137.117C147.803 137.117 147.104 136.836 146.564 136.273C146.025 135.707 145.756 134.951 145.756 134.006V133.807C145.756 133.178 145.875 132.617 146.113 132.125C146.355 131.629 146.691 131.242 147.121 130.965C147.555 130.684 148.023 130.543 148.527 130.543C149.352 130.543 149.992 130.814 150.449 131.357C150.906 131.9 151.135 132.678 151.135 133.689V134.141H146.84C146.855 134.766 147.037 135.271 147.385 135.658C147.736 136.041 148.182 136.232 148.721 136.232C149.104 136.232 149.428 136.154 149.693 135.998C149.959 135.842 150.191 135.635 150.391 135.377L151.053 135.893C150.521 136.709 149.725 137.117 148.662 137.117ZM148.527 131.434C148.09 131.434 147.723 131.594 147.426 131.914C147.129 132.23 146.945 132.676 146.875 133.25H150.051V133.168C150.02 132.617 149.871 132.191 149.605 131.891C149.34 131.586 148.98 131.434 148.527 131.434Z" fill="black"/>
<path fill-rule="evenodd" clip-rule="evenodd" d="M113.104 130.516C113.223 130.516 113.383 130.522 113.383 130.527V128L120.642 132.042L113.383 136.032V133.262C113.383 133.221 112.811 133.194 112.476 133.194C109.496 133.194 107.024 134.767 106.235 136.917C106.099 136.519 106 136.105 106 135.676C106 132.826 109.17 130.516 113.104 130.516Z" fill="white"/>
</g>
<defs>
<filter id="filter0_d" x="-4" y="0" width="264" height="258" filterUnits="userSpaceOnUse" color-interpolation-filters="sRGB">
<feFlood flood-opacity="0" result="BackgroundImageFix"/>
<feColorMatrix in="SourceAlpha" type="matrix" values="0 0 0 0 0 0 0 0 0 0 0 0 0 0 0 0 0 0 127 0"/>
<feOffset dy="4"/>
<feGaussianBlur stdDeviation="2"/>
<feColorMatrix type="matrix" values="0 0 0 0 0 0 0 0 0 0 0 0 0 0 0 0 0 0 0.25 0"/>
<feBlend mode="normal" in2="BackgroundImageFix" result="effect1_dropShadow"/>
<feBlend mode="normal" in="SourceGraphic" in2="effect1_dropShadow" result="shape"/>
</filter>
<clipPath id="clip0">
<rect width="256" height="250" fill="white"/>
</clipPath>
</defs>
</svg>
