<svg width="993" height="490" viewBox="0 0 993 490" fill="none" xmlns="http://www.w3.org/2000/svg">
<rect width="993" height="490" fill="white"/>
<circle cx="170" cy="133" r="49.5" fill="#E58F34" stroke="black"/>
<circle cx="821" cy="313" r="49.5" fill="#A7C6DA" stroke="black"/>
<circle cx="822" cy="133" r="49.5" fill="#FF7A78" stroke="black"/>
<circle cx="495" cy="313" r="49.5" fill="#FFFFE8" stroke="black"/>
<circle cx="169" cy="313" r="49.5" fill="#6DB37F" stroke="black"/>
<path d="M440.156 223H442.746V205.914H440.156V213.238H433.395V205.914H430.805V223H433.395V215.535H440.156V223ZM455.578 217.844V215.828C455.562 214.227 455.066 212.969 454.09 212.055C453.129 211.156 451.953 210.699 450.562 210.684C449.984 210.684 449.398 210.789 448.805 211C448.203 211.211 447.66 211.555 447.176 212.031C446.699 212.5 446.309 213.141 446.004 213.953C445.699 214.75 445.547 215.75 445.547 216.953C445.547 218.203 445.723 219.219 446.074 220C446.395 220.812 446.812 221.445 447.328 221.898C447.594 222.117 447.879 222.301 448.184 222.449C448.473 222.621 448.77 222.758 449.074 222.859C449.684 223.047 450.309 223.141 450.949 223.141C452.629 223.156 454.09 222.5 455.332 221.172L453.562 219.66C452.781 220.449 451.895 220.844 450.902 220.844C450.051 220.844 449.363 220.586 448.84 220.07C448.277 219.562 447.996 218.82 447.996 217.844H455.578ZM447.996 215.828C448.043 214.883 448.297 214.168 448.758 213.684C449.227 213.223 449.828 212.992 450.562 212.992C451.297 212.992 451.898 213.223 452.367 213.684C452.844 214.168 453.098 214.883 453.129 215.828H447.996ZM460.957 216.789L456.797 223H459.727L462.316 218.945L464.918 223H467.836L463.688 216.789L467.672 210.836H464.742L462.316 214.773L459.902 210.836H456.973L460.957 216.789ZM469.746 217.551H472.195V215.102H469.746V217.551ZM469.746 223H472.195V220.551H469.746V223ZM486.293 216.18H483.949L484.477 212.734H486.82L486.293 216.18ZM485.379 223H487.254L488.004 217.773H490.371V216.18H488.168L488.695 212.734H491.074V211.141H488.859L489.609 205.914H487.734L486.996 211.141H484.641L485.379 205.914H483.516L482.766 211.141H480.398V212.734H482.602L482.074 216.18H479.695V217.773H481.91L481.16 223H483.035L483.773 217.773H486.129L485.379 223ZM494.473 210.66C494.488 209.848 494.742 209.234 495.234 208.82C495.719 208.422 496.277 208.223 496.91 208.223C497.566 208.223 498.137 208.422 498.621 208.82C499.098 209.234 499.344 209.848 499.359 210.66C499.344 211.449 499.098 212.051 498.621 212.465C498.137 212.895 497.566 213.109 496.91 213.109C496.277 213.109 495.719 212.895 495.234 212.465C494.742 212.051 494.488 211.449 494.473 210.66ZM491.707 218.008C491.723 219.547 492.242 220.777 493.266 221.699C494.242 222.645 495.457 223.125 496.91 223.141C498.371 223.125 499.605 222.645 500.613 221.699C501.605 220.777 502.109 219.547 502.125 218.008C502.109 216.359 501.438 215.078 500.109 214.164C500.617 213.719 501.031 213.207 501.352 212.629C501.656 212.09 501.809 211.449 501.809 210.707C501.793 209.285 501.328 208.109 500.414 207.18C499.508 206.258 498.34 205.789 496.91 205.773C495.504 205.789 494.355 206.258 493.465 207.18C492.52 208.109 492.039 209.285 492.023 210.707C492.023 211.449 492.191 212.09 492.527 212.629C492.816 213.207 493.215 213.719 493.723 214.164C492.395 215.078 491.723 216.359 491.707 218.008ZM494.156 217.984C494.172 217.188 494.453 216.539 495 216.039C495.523 215.547 496.16 215.293 496.91 215.277C497.684 215.293 498.332 215.547 498.855 216.039C499.387 216.539 499.66 217.188 499.676 217.984C499.66 218.766 499.387 219.406 498.855 219.906C498.332 220.43 497.684 220.691 496.91 220.691C496.16 220.691 495.523 220.43 495 219.906C494.453 219.406 494.172 218.766 494.156 217.984ZM511.594 205.738C511.602 205.738 511.562 205.824 511.477 205.996C511.398 206.16 511.289 206.387 511.148 206.676C511.008 206.965 510.844 207.297 510.656 207.672C510.469 208.047 510.27 208.441 510.059 208.855C509.855 209.27 509.645 209.688 509.426 210.109C509.215 210.531 509.008 210.934 508.805 211.316C508.609 211.699 508.43 212.047 508.266 212.359C508.102 212.672 507.965 212.922 507.855 213.109C508.082 212.977 508.336 212.898 508.617 212.875C508.906 212.844 509.238 212.836 509.613 212.852C510.152 212.867 510.621 212.961 511.02 213.133C511.426 213.305 511.773 213.52 512.062 213.777C512.352 214.035 512.59 214.324 512.777 214.645C512.973 214.957 513.125 215.266 513.234 215.57C513.344 215.867 513.418 216.148 513.457 216.414C513.504 216.672 513.527 216.875 513.527 217.023C513.527 217.07 513.527 217.156 513.527 217.281C513.527 217.406 513.527 217.547 513.527 217.703C513.527 217.852 513.523 218.004 513.516 218.16C513.516 218.316 513.512 218.449 513.504 218.559C513.496 218.613 513.469 218.758 513.422 218.992C513.383 219.219 513.305 219.492 513.188 219.812C513.078 220.125 512.918 220.465 512.707 220.832C512.496 221.191 512.219 221.535 511.875 221.863C511.531 222.184 511.113 222.461 510.621 222.695C510.129 222.93 509.543 223.074 508.863 223.129C508.152 223.191 507.523 223.145 506.977 222.988C506.43 222.832 505.957 222.609 505.559 222.32C505.16 222.031 504.828 221.699 504.562 221.324C504.297 220.941 504.086 220.551 503.93 220.152C503.781 219.754 503.68 219.371 503.625 219.004C503.578 218.637 503.57 218.324 503.602 218.066C503.648 217.684 503.699 217.344 503.754 217.047C503.809 216.742 503.871 216.453 503.941 216.18C504.02 215.906 504.105 215.637 504.199 215.371C504.293 215.105 504.402 214.816 504.527 214.504C504.559 214.426 504.645 214.242 504.785 213.953C504.926 213.656 505.098 213.293 505.301 212.863C505.512 212.434 505.746 211.961 506.004 211.445C506.262 210.93 506.52 210.406 506.777 209.875C507.387 208.641 508.07 207.262 508.828 205.738H511.594ZM511.102 218.242C511.102 217.945 511.09 217.617 511.066 217.258C511.043 216.898 510.953 216.559 510.797 216.238C510.648 215.91 510.402 215.629 510.059 215.395C509.715 215.16 509.227 215.02 508.594 214.973C508.297 214.949 508.027 214.98 507.785 215.066C507.543 215.152 507.328 215.27 507.141 215.418C506.953 215.566 506.789 215.738 506.648 215.934C506.516 216.121 506.402 216.309 506.309 216.496C506.223 216.684 506.16 216.859 506.121 217.023C506.082 217.18 506.062 217.301 506.062 217.387C506.062 217.582 506.066 217.801 506.074 218.043C506.082 218.277 506.105 218.516 506.145 218.758C506.191 218.992 506.266 219.223 506.367 219.449C506.469 219.668 506.613 219.863 506.801 220.035C506.988 220.207 507.227 220.348 507.516 220.457C507.812 220.566 508.18 220.621 508.617 220.621C508.969 220.629 509.273 220.586 509.531 220.492C509.797 220.391 510.02 220.266 510.199 220.117C510.387 219.961 510.539 219.789 510.656 219.602C510.773 219.414 510.863 219.23 510.926 219.051C510.996 218.871 511.043 218.711 511.066 218.57C511.09 218.422 511.102 218.312 511.102 218.242ZM515.414 215.148H517.723C518.012 214.625 518.34 214.258 518.707 214.047C519.074 213.844 519.48 213.742 519.926 213.742C520.426 213.742 520.844 213.812 521.18 213.953C521.516 214.125 521.77 214.355 521.941 214.645C522.262 215.254 522.414 216.047 522.398 217.023C522.398 217.422 522.391 217.832 522.375 218.254C522.344 218.684 522.258 219.082 522.117 219.449C521.984 219.816 521.75 220.113 521.414 220.34C521.062 220.574 520.594 220.691 520.008 220.691C518.641 220.676 517.824 220.012 517.559 218.699H515.109C515.344 220.27 515.949 221.406 516.926 222.109C517.887 222.797 518.945 223.141 520.102 223.141C520.961 223.125 521.703 222.926 522.328 222.543C522.969 222.176 523.457 221.77 523.793 221.324C524.176 220.871 524.449 220.352 524.613 219.766C524.77 219.172 524.848 218.32 524.848 217.211C524.848 216.492 524.824 215.887 524.777 215.395C524.73 214.91 524.652 214.5 524.543 214.164C524.332 213.547 523.988 213.004 523.512 212.535C523.191 212.184 522.773 211.887 522.258 211.645C521.711 211.426 521.109 211.309 520.453 211.293C519.43 211.293 518.52 211.605 517.723 212.23V208.363H524.52V205.914H515.414V215.148ZM536.332 218.219C535.613 219.773 534.527 220.551 533.074 220.551C532.465 220.551 531.941 220.422 531.504 220.164C531.059 219.945 530.699 219.66 530.426 219.309C530.09 218.941 529.867 218.461 529.758 217.867C529.633 217.273 529.57 216.137 529.57 214.457C529.57 212.777 529.633 211.633 529.758 211.023C529.867 210.445 530.09 209.973 530.426 209.605C530.699 209.254 531.059 208.961 531.504 208.727C531.941 208.5 532.465 208.379 533.074 208.363C533.902 208.379 534.605 208.617 535.184 209.078C535.738 209.562 536.121 210.148 536.332 210.836H539.074C538.801 209.406 538.145 208.207 537.105 207.238C536.066 206.277 534.723 205.789 533.074 205.773C531.73 205.789 530.609 206.109 529.711 206.734C528.797 207.352 528.133 208.055 527.719 208.844C527.461 209.258 527.27 209.801 527.145 210.473C527.027 211.145 526.969 212.473 526.969 214.457C526.969 216.41 527.027 217.73 527.145 218.418C527.207 218.785 527.285 219.09 527.379 219.332C527.48 219.566 527.594 219.812 527.719 220.07C528.133 220.859 528.797 221.555 529.711 222.156C530.609 222.781 531.73 223.109 533.074 223.141C534.559 223.141 535.844 222.719 536.93 221.875C537.984 221.023 538.699 219.805 539.074 218.219H536.332ZM548.016 205.738C548.023 205.738 547.984 205.824 547.898 205.996C547.82 206.16 547.711 206.387 547.57 206.676C547.43 206.965 547.266 207.297 547.078 207.672C546.891 208.047 546.691 208.441 546.48 208.855C546.277 209.27 546.066 209.688 545.848 210.109C545.637 210.531 545.43 210.934 545.227 211.316C545.031 211.699 544.852 212.047 544.688 212.359C544.523 212.672 544.387 212.922 544.277 213.109C544.504 212.977 544.758 212.898 545.039 212.875C545.328 212.844 545.66 212.836 546.035 212.852C546.574 212.867 547.043 212.961 547.441 213.133C547.848 213.305 548.195 213.52 548.484 213.777C548.773 214.035 549.012 214.324 549.199 214.645C549.395 214.957 549.547 215.266 549.656 215.57C549.766 215.867 549.84 216.148 549.879 216.414C549.926 216.672 549.949 216.875 549.949 217.023C549.949 217.07 549.949 217.156 549.949 217.281C549.949 217.406 549.949 217.547 549.949 217.703C549.949 217.852 549.945 218.004 549.938 218.16C549.938 218.316 549.934 218.449 549.926 218.559C549.918 218.613 549.891 218.758 549.844 218.992C549.805 219.219 549.727 219.492 549.609 219.812C549.5 220.125 549.34 220.465 549.129 220.832C548.918 221.191 548.641 221.535 548.297 221.863C547.953 222.184 547.535 222.461 547.043 222.695C546.551 222.93 545.965 223.074 545.285 223.129C544.574 223.191 543.945 223.145 543.398 222.988C542.852 222.832 542.379 222.609 541.98 222.32C541.582 222.031 541.25 221.699 540.984 221.324C540.719 220.941 540.508 220.551 540.352 220.152C540.203 219.754 540.102 219.371 540.047 219.004C540 218.637 539.992 218.324 540.023 218.066C540.07 217.684 540.121 217.344 540.176 217.047C540.23 216.742 540.293 216.453 540.363 216.18C540.441 215.906 540.527 215.637 540.621 215.371C540.715 215.105 540.824 214.816 540.949 214.504C540.98 214.426 541.066 214.242 541.207 213.953C541.348 213.656 541.52 213.293 541.723 212.863C541.934 212.434 542.168 211.961 542.426 211.445C542.684 210.93 542.941 210.406 543.199 209.875C543.809 208.641 544.492 207.262 545.25 205.738H548.016ZM547.523 218.242C547.523 217.945 547.512 217.617 547.488 217.258C547.465 216.898 547.375 216.559 547.219 216.238C547.07 215.91 546.824 215.629 546.48 215.395C546.137 215.16 545.648 215.02 545.016 214.973C544.719 214.949 544.449 214.98 544.207 215.066C543.965 215.152 543.75 215.27 543.562 215.418C543.375 215.566 543.211 215.738 543.07 215.934C542.938 216.121 542.824 216.309 542.73 216.496C542.645 216.684 542.582 216.859 542.543 217.023C542.504 217.18 542.484 217.301 542.484 217.387C542.484 217.582 542.488 217.801 542.496 218.043C542.504 218.277 542.527 218.516 542.566 218.758C542.613 218.992 542.688 219.223 542.789 219.449C542.891 219.668 543.035 219.863 543.223 220.035C543.41 220.207 543.648 220.348 543.938 220.457C544.234 220.566 544.602 220.621 545.039 220.621C545.391 220.629 545.695 220.586 545.953 220.492C546.219 220.391 546.441 220.266 546.621 220.117C546.809 219.961 546.961 219.789 547.078 219.602C547.195 219.414 547.285 219.23 547.348 219.051C547.418 218.871 547.465 218.711 547.488 218.57C547.512 218.422 547.523 218.312 547.523 218.242ZM561.223 218.219C560.504 219.773 559.418 220.551 557.965 220.551C557.355 220.551 556.832 220.422 556.395 220.164C555.949 219.945 555.59 219.66 555.316 219.309C554.98 218.941 554.758 218.461 554.648 217.867C554.523 217.273 554.461 216.137 554.461 214.457C554.461 212.777 554.523 211.633 554.648 211.023C554.758 210.445 554.98 209.973 555.316 209.605C555.59 209.254 555.949 208.961 556.395 208.727C556.832 208.5 557.355 208.379 557.965 208.363C558.793 208.379 559.496 208.617 560.074 209.078C560.629 209.562 561.012 210.148 561.223 210.836H563.965C563.691 209.406 563.035 208.207 561.996 207.238C560.957 206.277 559.613 205.789 557.965 205.773C556.621 205.789 555.5 206.109 554.602 206.734C553.688 207.352 553.023 208.055 552.609 208.844C552.352 209.258 552.16 209.801 552.035 210.473C551.918 211.145 551.859 212.473 551.859 214.457C551.859 216.41 551.918 217.73 552.035 218.418C552.098 218.785 552.176 219.09 552.27 219.332C552.371 219.566 552.484 219.812 552.609 220.07C553.023 220.859 553.688 221.555 554.602 222.156C555.5 222.781 556.621 223.109 557.965 223.141C559.449 223.141 560.734 222.719 561.82 221.875C562.875 221.023 563.59 219.805 563.965 218.219H561.223Z" fill="black"/>
<path d="M766.156 223H768.746V205.914H766.156V213.238H759.395V205.914H756.805V223H759.395V215.535H766.156V223ZM781.578 217.844V215.828C781.562 214.227 781.066 212.969 780.09 212.055C779.129 211.156 777.953 210.699 776.562 210.684C775.984 210.684 775.398 210.789 774.805 211C774.203 211.211 773.66 211.555 773.176 212.031C772.699 212.5 772.309 213.141 772.004 213.953C771.699 214.75 771.547 215.75 771.547 216.953C771.547 218.203 771.723 219.219 772.074 220C772.395 220.812 772.812 221.445 773.328 221.898C773.594 222.117 773.879 222.301 774.184 222.449C774.473 222.621 774.77 222.758 775.074 222.859C775.684 223.047 776.309 223.141 776.949 223.141C778.629 223.156 780.09 222.5 781.332 221.172L779.562 219.66C778.781 220.449 777.895 220.844 776.902 220.844C776.051 220.844 775.363 220.586 774.84 220.07C774.277 219.562 773.996 218.82 773.996 217.844H781.578ZM773.996 215.828C774.043 214.883 774.297 214.168 774.758 213.684C775.227 213.223 775.828 212.992 776.562 212.992C777.297 212.992 777.898 213.223 778.367 213.684C778.844 214.168 779.098 214.883 779.129 215.828H773.996ZM786.957 216.789L782.797 223H785.727L788.316 218.945L790.918 223H793.836L789.688 216.789L793.672 210.836H790.742L788.316 214.773L785.902 210.836H782.973L786.957 216.789ZM795.746 217.551H798.195V215.102H795.746V217.551ZM795.746 223H798.195V220.551H795.746V223ZM812.293 216.18H809.949L810.477 212.734H812.82L812.293 216.18ZM811.379 223H813.254L814.004 217.773H816.371V216.18H814.168L814.695 212.734H817.074V211.141H814.859L815.609 205.914H813.734L812.996 211.141H810.641L811.379 205.914H809.516L808.766 211.141H806.398V212.734H808.602L808.074 216.18H805.695V217.773H807.91L807.16 223H809.035L809.773 217.773H812.129L811.379 223ZM818.961 223H821.551V215.699H828.652V213.402H821.551V208.363H829.871V205.914H818.961V223ZM831.852 223H834.441V215.699H841.543V213.402H834.441V208.363H842.762V205.914H831.852V223ZM844.156 210.836H846.605V208.363H851.141L845.363 223H848.094L853.883 208.363V205.914H844.156V210.836ZM859.297 216.883L861.77 209.418H861.816L864.289 216.883H859.297ZM866.352 223H869.082L862.871 205.914H860.703L854.492 223H857.234L858.547 219.18H865.027L866.352 223ZM870.336 210.836H872.785V208.363H877.32L871.543 223H874.273L880.062 208.363V205.914H870.336V210.836ZM883.965 210.66C883.98 209.848 884.234 209.234 884.727 208.82C885.211 208.422 885.77 208.223 886.402 208.223C887.059 208.223 887.629 208.422 888.113 208.82C888.59 209.234 888.836 209.848 888.852 210.66C888.836 211.449 888.59 212.051 888.113 212.465C887.629 212.895 887.059 213.109 886.402 213.109C885.77 213.109 885.211 212.895 884.727 212.465C884.234 212.051 883.98 211.449 883.965 210.66ZM881.199 218.008C881.215 219.547 881.734 220.777 882.758 221.699C883.734 222.645 884.949 223.125 886.402 223.141C887.863 223.125 889.098 222.645 890.105 221.699C891.098 220.777 891.602 219.547 891.617 218.008C891.602 216.359 890.93 215.078 889.602 214.164C890.109 213.719 890.523 213.207 890.844 212.629C891.148 212.09 891.301 211.449 891.301 210.707C891.285 209.285 890.82 208.109 889.906 207.18C889 206.258 887.832 205.789 886.402 205.773C884.996 205.789 883.848 206.258 882.957 207.18C882.012 208.109 881.531 209.285 881.516 210.707C881.516 211.449 881.684 212.09 882.02 212.629C882.309 213.207 882.707 213.719 883.215 214.164C881.887 215.078 881.215 216.359 881.199 218.008ZM883.648 217.984C883.664 217.188 883.945 216.539 884.492 216.039C885.016 215.547 885.652 215.293 886.402 215.277C887.176 215.293 887.824 215.547 888.348 216.039C888.879 216.539 889.152 217.188 889.168 217.984C889.152 218.766 888.879 219.406 888.348 219.906C887.824 220.43 887.176 220.691 886.402 220.691C885.652 220.691 885.016 220.43 884.492 219.906C883.945 219.406 883.664 218.766 883.648 217.984Z" fill="black"/>
<path d="M762.156 403H764.746V385.914H762.156V393.238H755.395V385.914H752.805V403H755.395V395.535H762.156V403ZM777.578 397.844V395.828C777.562 394.227 777.066 392.969 776.09 392.055C775.129 391.156 773.953 390.699 772.562 390.684C771.984 390.684 771.398 390.789 770.805 391C770.203 391.211 769.66 391.555 769.176 392.031C768.699 392.5 768.309 393.141 768.004 393.953C767.699 394.75 767.547 395.75 767.547 396.953C767.547 398.203 767.723 399.219 768.074 400C768.395 400.812 768.812 401.445 769.328 401.898C769.594 402.117 769.879 402.301 770.184 402.449C770.473 402.621 770.77 402.758 771.074 402.859C771.684 403.047 772.309 403.141 772.949 403.141C774.629 403.156 776.09 402.5 777.332 401.172L775.562 399.66C774.781 400.449 773.895 400.844 772.902 400.844C772.051 400.844 771.363 400.586 770.84 400.07C770.277 399.562 769.996 398.82 769.996 397.844H777.578ZM769.996 395.828C770.043 394.883 770.297 394.168 770.758 393.684C771.227 393.223 771.828 392.992 772.562 392.992C773.297 392.992 773.898 393.223 774.367 393.684C774.844 394.168 775.098 394.883 775.129 395.828H769.996ZM782.957 396.789L778.797 403H781.727L784.316 398.945L786.918 403H789.836L785.688 396.789L789.672 390.836H786.742L784.316 394.773L781.902 390.836H778.973L782.957 396.789ZM791.746 397.551H794.195V395.102H791.746V397.551ZM791.746 403H794.195V400.551H791.746V403ZM808.293 396.18H805.949L806.477 392.734H808.82L808.293 396.18ZM807.379 403H809.254L810.004 397.773H812.371V396.18H810.168L810.695 392.734H813.074V391.141H810.859L811.609 385.914H809.734L808.996 391.141H806.641L807.379 385.914H805.516L804.766 391.141H802.398V392.734H804.602L804.074 396.18H801.695V397.773H803.91L803.16 403H805.035L805.773 397.773H808.129L807.379 403ZM817.984 396.883L820.457 389.418H820.504L822.977 396.883H817.984ZM825.039 403H827.77L821.559 385.914H819.391L813.18 403H815.922L817.234 399.18H823.715L825.039 403ZM829.023 390.836H831.473V388.363H836.008L830.23 403H832.961L838.75 388.363V385.914H829.023V390.836ZM849.918 398.219C849.199 399.773 848.113 400.551 846.66 400.551C846.051 400.551 845.527 400.422 845.09 400.164C844.645 399.945 844.285 399.66 844.012 399.309C843.676 398.941 843.453 398.461 843.344 397.867C843.219 397.273 843.156 396.137 843.156 394.457C843.156 392.777 843.219 391.633 843.344 391.023C843.453 390.445 843.676 389.973 844.012 389.605C844.285 389.254 844.645 388.961 845.09 388.727C845.527 388.5 846.051 388.379 846.66 388.363C847.488 388.379 848.191 388.617 848.77 389.078C849.324 389.562 849.707 390.148 849.918 390.836H852.66C852.387 389.406 851.73 388.207 850.691 387.238C849.652 386.277 848.309 385.789 846.66 385.773C845.316 385.789 844.195 386.109 843.297 386.734C842.383 387.352 841.719 388.055 841.305 388.844C841.047 389.258 840.855 389.801 840.73 390.473C840.613 391.145 840.555 392.473 840.555 394.457C840.555 396.41 840.613 397.73 840.73 398.418C840.793 398.785 840.871 399.09 840.965 399.332C841.066 399.566 841.18 399.812 841.305 400.07C841.719 400.859 842.383 401.555 843.297 402.156C844.195 402.781 845.316 403.109 846.66 403.141C848.145 403.141 849.43 402.719 850.516 401.875C851.57 401.023 852.285 399.805 852.66 398.219H849.918ZM861.602 385.738C861.609 385.738 861.57 385.824 861.484 385.996C861.406 386.16 861.297 386.387 861.156 386.676C861.016 386.965 860.852 387.297 860.664 387.672C860.477 388.047 860.277 388.441 860.066 388.855C859.863 389.27 859.652 389.688 859.434 390.109C859.223 390.531 859.016 390.934 858.812 391.316C858.617 391.699 858.438 392.047 858.273 392.359C858.109 392.672 857.973 392.922 857.863 393.109C858.09 392.977 858.344 392.898 858.625 392.875C858.914 392.844 859.246 392.836 859.621 392.852C860.16 392.867 860.629 392.961 861.027 393.133C861.434 393.305 861.781 393.52 862.07 393.777C862.359 394.035 862.598 394.324 862.785 394.645C862.98 394.957 863.133 395.266 863.242 395.57C863.352 395.867 863.426 396.148 863.465 396.414C863.512 396.672 863.535 396.875 863.535 397.023C863.535 397.07 863.535 397.156 863.535 397.281C863.535 397.406 863.535 397.547 863.535 397.703C863.535 397.852 863.531 398.004 863.523 398.16C863.523 398.316 863.52 398.449 863.512 398.559C863.504 398.613 863.477 398.758 863.43 398.992C863.391 399.219 863.312 399.492 863.195 399.812C863.086 400.125 862.926 400.465 862.715 400.832C862.504 401.191 862.227 401.535 861.883 401.863C861.539 402.184 861.121 402.461 860.629 402.695C860.137 402.93 859.551 403.074 858.871 403.129C858.16 403.191 857.531 403.145 856.984 402.988C856.438 402.832 855.965 402.609 855.566 402.32C855.168 402.031 854.836 401.699 854.57 401.324C854.305 400.941 854.094 400.551 853.938 400.152C853.789 399.754 853.688 399.371 853.633 399.004C853.586 398.637 853.578 398.324 853.609 398.066C853.656 397.684 853.707 397.344 853.762 397.047C853.816 396.742 853.879 396.453 853.949 396.18C854.027 395.906 854.113 395.637 854.207 395.371C854.301 395.105 854.41 394.816 854.535 394.504C854.566 394.426 854.652 394.242 854.793 393.953C854.934 393.656 855.105 393.293 855.309 392.863C855.52 392.434 855.754 391.961 856.012 391.445C856.27 390.93 856.527 390.406 856.785 389.875C857.395 388.641 858.078 387.262 858.836 385.738H861.602ZM861.109 398.242C861.109 397.945 861.098 397.617 861.074 397.258C861.051 396.898 860.961 396.559 860.805 396.238C860.656 395.91 860.41 395.629 860.066 395.395C859.723 395.16 859.234 395.02 858.602 394.973C858.305 394.949 858.035 394.98 857.793 395.066C857.551 395.152 857.336 395.27 857.148 395.418C856.961 395.566 856.797 395.738 856.656 395.934C856.523 396.121 856.41 396.309 856.316 396.496C856.23 396.684 856.168 396.859 856.129 397.023C856.09 397.18 856.07 397.301 856.07 397.387C856.07 397.582 856.074 397.801 856.082 398.043C856.09 398.277 856.113 398.516 856.152 398.758C856.199 398.992 856.273 399.223 856.375 399.449C856.477 399.668 856.621 399.863 856.809 400.035C856.996 400.207 857.234 400.348 857.523 400.457C857.82 400.566 858.188 400.621 858.625 400.621C858.977 400.629 859.281 400.586 859.539 400.492C859.805 400.391 860.027 400.266 860.207 400.117C860.395 399.961 860.547 399.789 860.664 399.602C860.781 399.414 860.871 399.23 860.934 399.051C861.004 398.871 861.051 398.711 861.074 398.57C861.098 398.422 861.109 398.312 861.109 398.242ZM866.031 403H871.832C873.113 403 874.195 402.719 875.078 402.156C875.969 401.633 876.664 400.969 877.164 400.164C877.352 399.859 877.512 399.566 877.645 399.285C877.77 398.996 877.863 398.668 877.926 398.301C878.059 397.574 878.125 396.293 878.125 394.457C878.125 392.73 878.082 391.516 877.996 390.812C877.887 390.109 877.625 389.438 877.211 388.797C876.055 386.891 874.32 385.93 872.008 385.914H866.031V403ZM868.621 388.363H871.715C873.027 388.332 874.043 388.812 874.762 389.805C875.113 390.203 875.336 390.723 875.43 391.363C875.5 392.004 875.535 393.066 875.535 394.551C875.535 396.074 875.5 397.113 875.43 397.668C875.352 398.23 875.168 398.695 874.879 399.062C874.223 400.055 873.168 400.551 871.715 400.551H868.621V388.363ZM883.727 396.883L886.199 389.418H886.246L888.719 396.883H883.727ZM890.781 403H893.512L887.301 385.914H885.133L878.922 403H881.664L882.977 399.18H889.457L890.781 403Z" fill="black"/>
<path d="M434.156 403H436.746V385.914H434.156V393.238H427.395V385.914H424.805V403H427.395V395.535H434.156V403ZM449.578 397.844V395.828C449.562 394.227 449.066 392.969 448.09 392.055C447.129 391.156 445.953 390.699 444.562 390.684C443.984 390.684 443.398 390.789 442.805 391C442.203 391.211 441.66 391.555 441.176 392.031C440.699 392.5 440.309 393.141 440.004 393.953C439.699 394.75 439.547 395.75 439.547 396.953C439.547 398.203 439.723 399.219 440.074 400C440.395 400.812 440.812 401.445 441.328 401.898C441.594 402.117 441.879 402.301 442.184 402.449C442.473 402.621 442.77 402.758 443.074 402.859C443.684 403.047 444.309 403.141 444.949 403.141C446.629 403.156 448.09 402.5 449.332 401.172L447.562 399.66C446.781 400.449 445.895 400.844 444.902 400.844C444.051 400.844 443.363 400.586 442.84 400.07C442.277 399.562 441.996 398.82 441.996 397.844H449.578ZM441.996 395.828C442.043 394.883 442.297 394.168 442.758 393.684C443.227 393.223 443.828 392.992 444.562 392.992C445.297 392.992 445.898 393.223 446.367 393.684C446.844 394.168 447.098 394.883 447.129 395.828H441.996ZM454.957 396.789L450.797 403H453.727L456.316 398.945L458.918 403H461.836L457.688 396.789L461.672 390.836H458.742L456.316 394.773L453.902 390.836H450.973L454.957 396.789ZM463.746 397.551H466.195V395.102H463.746V397.551ZM463.746 403H466.195V400.551H463.746V403ZM480.293 396.18H477.949L478.477 392.734H480.82L480.293 396.18ZM479.379 403H481.254L482.004 397.773H484.371V396.18H482.168L482.695 392.734H485.074V391.141H482.859L483.609 385.914H481.734L480.996 391.141H478.641L479.379 385.914H477.516L476.766 391.141H474.398V392.734H476.602L476.074 396.18H473.695V397.773H475.91L475.16 403H477.035L477.773 397.773H480.129L479.379 403ZM486.961 403H489.551V395.699H496.652V393.402H489.551V388.363H497.871V385.914H486.961V403ZM499.852 403H502.441V395.699H509.543V393.402H502.441V388.363H510.762V385.914H499.852V403ZM512.742 403H515.332V395.699H522.434V393.402H515.332V388.363H523.652V385.914H512.742V403ZM525.633 403H528.223V395.699H535.324V393.402H528.223V388.363H536.543V385.914H525.633V403ZM538.523 403H549.434V400.551H541.113V395.535H548.215V393.238H541.113V388.363H549.434V385.914H538.523V403ZM553.395 390.66C553.41 389.848 553.664 389.234 554.156 388.82C554.641 388.422 555.199 388.223 555.832 388.223C556.488 388.223 557.059 388.422 557.543 388.82C558.02 389.234 558.266 389.848 558.281 390.66C558.266 391.449 558.02 392.051 557.543 392.465C557.059 392.895 556.488 393.109 555.832 393.109C555.199 393.109 554.641 392.895 554.156 392.465C553.664 392.051 553.41 391.449 553.395 390.66ZM550.629 398.008C550.645 399.547 551.164 400.777 552.188 401.699C553.164 402.645 554.379 403.125 555.832 403.141C557.293 403.125 558.527 402.645 559.535 401.699C560.527 400.777 561.031 399.547 561.047 398.008C561.031 396.359 560.359 395.078 559.031 394.164C559.539 393.719 559.953 393.207 560.273 392.629C560.578 392.09 560.73 391.449 560.73 390.707C560.715 389.285 560.25 388.109 559.336 387.18C558.43 386.258 557.262 385.789 555.832 385.773C554.426 385.789 553.277 386.258 552.387 387.18C551.441 388.109 550.961 389.285 550.945 390.707C550.945 391.449 551.113 392.09 551.449 392.629C551.738 393.207 552.137 393.719 552.645 394.164C551.316 395.078 550.645 396.359 550.629 398.008ZM553.078 397.984C553.094 397.188 553.375 396.539 553.922 396.039C554.445 395.547 555.082 395.293 555.832 395.277C556.605 395.293 557.254 395.547 557.777 396.039C558.309 396.539 558.582 397.188 558.598 397.984C558.582 398.766 558.309 399.406 557.777 399.906C557.254 400.43 556.605 400.691 555.832 400.691C555.082 400.691 554.445 400.43 553.922 399.906C553.375 399.406 553.094 398.766 553.078 397.984Z" fill="black"/>
<path d="M108.156 403H110.746V385.914H108.156V393.238H101.395V385.914H98.8047V403H101.395V395.535H108.156V403ZM123.578 397.844V395.828C123.562 394.227 123.066 392.969 122.09 392.055C121.129 391.156 119.953 390.699 118.562 390.684C117.984 390.684 117.398 390.789 116.805 391C116.203 391.211 115.66 391.555 115.176 392.031C114.699 392.5 114.309 393.141 114.004 393.953C113.699 394.75 113.547 395.75 113.547 396.953C113.547 398.203 113.723 399.219 114.074 400C114.395 400.812 114.812 401.445 115.328 401.898C115.594 402.117 115.879 402.301 116.184 402.449C116.473 402.621 116.77 402.758 117.074 402.859C117.684 403.047 118.309 403.141 118.949 403.141C120.629 403.156 122.09 402.5 123.332 401.172L121.562 399.66C120.781 400.449 119.895 400.844 118.902 400.844C118.051 400.844 117.363 400.586 116.84 400.07C116.277 399.562 115.996 398.82 115.996 397.844H123.578ZM115.996 395.828C116.043 394.883 116.297 394.168 116.758 393.684C117.227 393.223 117.828 392.992 118.562 392.992C119.297 392.992 119.898 393.223 120.367 393.684C120.844 394.168 121.098 394.883 121.129 395.828H115.996ZM128.957 396.789L124.797 403H127.727L130.316 398.945L132.918 403H135.836L131.688 396.789L135.672 390.836H132.742L130.316 394.773L127.902 390.836H124.973L128.957 396.789ZM137.746 397.551H140.195V395.102H137.746V397.551ZM137.746 403H140.195V400.551H137.746V403ZM154.293 396.18H151.949L152.477 392.734H154.82L154.293 396.18ZM153.379 403H155.254L156.004 397.773H158.371V396.18H156.168L156.695 392.734H159.074V391.141H156.859L157.609 385.914H155.734L154.996 391.141H152.641L153.379 385.914H151.516L150.766 391.141H148.398V392.734H150.602L150.074 396.18H147.695V397.773H149.91L149.16 403H151.035L151.773 397.773H154.129L153.379 403ZM168.062 385.738C168.07 385.738 168.031 385.824 167.945 385.996C167.867 386.16 167.758 386.387 167.617 386.676C167.477 386.965 167.312 387.297 167.125 387.672C166.938 388.047 166.738 388.441 166.527 388.855C166.324 389.27 166.113 389.688 165.895 390.109C165.684 390.531 165.477 390.934 165.273 391.316C165.078 391.699 164.898 392.047 164.734 392.359C164.57 392.672 164.434 392.922 164.324 393.109C164.551 392.977 164.805 392.898 165.086 392.875C165.375 392.844 165.707 392.836 166.082 392.852C166.621 392.867 167.09 392.961 167.488 393.133C167.895 393.305 168.242 393.52 168.531 393.777C168.82 394.035 169.059 394.324 169.246 394.645C169.441 394.957 169.594 395.266 169.703 395.57C169.812 395.867 169.887 396.148 169.926 396.414C169.973 396.672 169.996 396.875 169.996 397.023C169.996 397.07 169.996 397.156 169.996 397.281C169.996 397.406 169.996 397.547 169.996 397.703C169.996 397.852 169.992 398.004 169.984 398.16C169.984 398.316 169.98 398.449 169.973 398.559C169.965 398.613 169.938 398.758 169.891 398.992C169.852 399.219 169.773 399.492 169.656 399.812C169.547 400.125 169.387 400.465 169.176 400.832C168.965 401.191 168.688 401.535 168.344 401.863C168 402.184 167.582 402.461 167.09 402.695C166.598 402.93 166.012 403.074 165.332 403.129C164.621 403.191 163.992 403.145 163.445 402.988C162.898 402.832 162.426 402.609 162.027 402.32C161.629 402.031 161.297 401.699 161.031 401.324C160.766 400.941 160.555 400.551 160.398 400.152C160.25 399.754 160.148 399.371 160.094 399.004C160.047 398.637 160.039 398.324 160.07 398.066C160.117 397.684 160.168 397.344 160.223 397.047C160.277 396.742 160.34 396.453 160.41 396.18C160.488 395.906 160.574 395.637 160.668 395.371C160.762 395.105 160.871 394.816 160.996 394.504C161.027 394.426 161.113 394.242 161.254 393.953C161.395 393.656 161.566 393.293 161.77 392.863C161.98 392.434 162.215 391.961 162.473 391.445C162.73 390.93 162.988 390.406 163.246 389.875C163.855 388.641 164.539 387.262 165.297 385.738H168.062ZM167.57 398.242C167.57 397.945 167.559 397.617 167.535 397.258C167.512 396.898 167.422 396.559 167.266 396.238C167.117 395.91 166.871 395.629 166.527 395.395C166.184 395.16 165.695 395.02 165.062 394.973C164.766 394.949 164.496 394.98 164.254 395.066C164.012 395.152 163.797 395.27 163.609 395.418C163.422 395.566 163.258 395.738 163.117 395.934C162.984 396.121 162.871 396.309 162.777 396.496C162.691 396.684 162.629 396.859 162.59 397.023C162.551 397.18 162.531 397.301 162.531 397.387C162.531 397.582 162.535 397.801 162.543 398.043C162.551 398.277 162.574 398.516 162.613 398.758C162.66 398.992 162.734 399.223 162.836 399.449C162.938 399.668 163.082 399.863 163.27 400.035C163.457 400.207 163.695 400.348 163.984 400.457C164.281 400.566 164.648 400.621 165.086 400.621C165.438 400.629 165.742 400.586 166 400.492C166.266 400.391 166.488 400.266 166.668 400.117C166.855 399.961 167.008 399.789 167.125 399.602C167.242 399.414 167.332 399.23 167.395 399.051C167.465 398.871 167.512 398.711 167.535 398.57C167.559 398.422 167.57 398.312 167.57 398.242ZM172.492 403H178.293C179.574 403 180.656 402.719 181.539 402.156C182.43 401.633 183.125 400.969 183.625 400.164C183.812 399.859 183.973 399.566 184.105 399.285C184.23 398.996 184.324 398.668 184.387 398.301C184.52 397.574 184.586 396.293 184.586 394.457C184.586 392.73 184.543 391.516 184.457 390.812C184.348 390.109 184.086 389.438 183.672 388.797C182.516 386.891 180.781 385.93 178.469 385.914H172.492V403ZM175.082 388.363H178.176C179.488 388.332 180.504 388.812 181.223 389.805C181.574 390.203 181.797 390.723 181.891 391.363C181.961 392.004 181.996 393.066 181.996 394.551C181.996 396.074 181.961 397.113 181.891 397.668C181.812 398.23 181.629 398.695 181.34 399.062C180.684 400.055 179.629 400.551 178.176 400.551H175.082V388.363ZM187.609 403H194.805C196.148 403 197.27 402.551 198.168 401.652C199.074 400.793 199.535 399.625 199.551 398.148C199.551 397.258 199.328 396.434 198.883 395.676C198.406 394.941 197.703 394.453 196.773 394.211V394.164C197.266 393.93 197.68 393.668 198.016 393.379C198.352 393.105 198.609 392.816 198.789 392.512C199.141 391.871 199.309 391.199 199.293 390.496C199.293 389.121 198.867 388.016 198.016 387.18C197.172 386.352 195.91 385.93 194.23 385.914H187.609V403ZM194.184 395.418C195.145 395.434 195.848 395.688 196.293 396.18C196.738 396.68 196.961 397.281 196.961 397.984C196.961 398.672 196.738 399.266 196.293 399.766C195.848 400.273 195.145 400.535 194.184 400.551H190.199V395.418H194.184ZM193.938 388.223C194.883 388.238 195.578 388.469 196.023 388.914C196.477 389.391 196.703 389.973 196.703 390.66C196.703 391.348 196.477 391.918 196.023 392.371C195.578 392.863 194.883 393.109 193.938 393.109H190.199V388.223H193.938ZM204.672 395.277H205.703C206.461 395.277 207.086 395.508 207.578 395.969C208.078 396.445 208.336 397.117 208.352 397.984C208.336 398.836 208.078 399.492 207.578 399.953C207.086 400.445 206.48 400.691 205.762 400.691C205.09 400.691 204.551 400.508 204.145 400.141C203.746 399.789 203.438 399.328 203.219 398.758H200.77C201.035 400.18 201.617 401.266 202.516 402.016C203.414 402.766 204.445 403.141 205.609 403.141C207.117 403.125 208.352 402.645 209.312 401.699C210.289 400.777 210.785 399.516 210.801 397.914C210.801 397.195 210.648 396.508 210.344 395.852C210.023 395.195 209.504 394.633 208.785 394.164C209.488 393.688 209.977 393.145 210.25 392.535C210.484 391.926 210.602 391.293 210.602 390.637C210.586 389.34 210.141 388.215 209.266 387.262C208.352 386.285 207.117 385.789 205.562 385.773C204.336 385.789 203.281 386.227 202.398 387.086C201.5 387.953 200.988 389.02 200.863 390.285H203.312C203.469 389.582 203.773 389.062 204.227 388.727C204.656 388.391 205.133 388.223 205.656 388.223C206.383 388.238 206.977 388.469 207.438 388.914C207.898 389.375 208.137 389.965 208.152 390.684C208.152 391.395 207.922 391.973 207.461 392.418C207 392.879 206.352 393.109 205.516 393.109H204.672V395.277ZM213.203 390.836H215.652V388.363H220.188L214.41 403H217.141L222.93 388.363V385.914H213.203V390.836ZM225.32 403H227.91V395.699H235.012V393.402H227.91V388.363H236.23V385.914H225.32V403Z" fill="black"/>
<path d="M114.156 223H116.746V205.914H114.156V213.238H107.395V205.914H104.805V223H107.395V215.535H114.156V223ZM129.578 217.844V215.828C129.562 214.227 129.066 212.969 128.09 212.055C127.129 211.156 125.953 210.699 124.562 210.684C123.984 210.684 123.398 210.789 122.805 211C122.203 211.211 121.66 211.555 121.176 212.031C120.699 212.5 120.309 213.141 120.004 213.953C119.699 214.75 119.547 215.75 119.547 216.953C119.547 218.203 119.723 219.219 120.074 220C120.395 220.812 120.812 221.445 121.328 221.898C121.594 222.117 121.879 222.301 122.184 222.449C122.473 222.621 122.77 222.758 123.074 222.859C123.684 223.047 124.309 223.141 124.949 223.141C126.629 223.156 128.09 222.5 129.332 221.172L127.562 219.66C126.781 220.449 125.895 220.844 124.902 220.844C124.051 220.844 123.363 220.586 122.84 220.07C122.277 219.562 121.996 218.82 121.996 217.844H129.578ZM121.996 215.828C122.043 214.883 122.297 214.168 122.758 213.684C123.227 213.223 123.828 212.992 124.562 212.992C125.297 212.992 125.898 213.223 126.367 213.684C126.844 214.168 127.098 214.883 127.129 215.828H121.996ZM134.957 216.789L130.797 223H133.727L136.316 218.945L138.918 223H141.836L137.688 216.789L141.672 210.836H138.742L136.316 214.773L133.902 210.836H130.973L134.957 216.789ZM143.746 217.551H146.195V215.102H143.746V217.551ZM143.746 223H146.195V220.551H143.746V223ZM160.293 216.18H157.949L158.477 212.734H160.82L160.293 216.18ZM159.379 223H161.254L162.004 217.773H164.371V216.18H162.168L162.695 212.734H165.074V211.141H162.859L163.609 205.914H161.734L160.996 211.141H158.641L159.379 205.914H157.516L156.766 211.141H154.398V212.734H156.602L156.074 216.18H153.695V217.773H155.91L155.16 223H157.035L157.773 217.773H160.129L159.379 223ZM166.961 223H177.871V220.551H169.551V215.535H176.652V213.238H169.551V208.363H177.871V205.914H166.961V223ZM179.711 215.148H182.02C182.309 214.625 182.637 214.258 183.004 214.047C183.371 213.844 183.777 213.742 184.223 213.742C184.723 213.742 185.141 213.812 185.477 213.953C185.812 214.125 186.066 214.355 186.238 214.645C186.559 215.254 186.711 216.047 186.695 217.023C186.695 217.422 186.688 217.832 186.672 218.254C186.641 218.684 186.555 219.082 186.414 219.449C186.281 219.816 186.047 220.113 185.711 220.34C185.359 220.574 184.891 220.691 184.305 220.691C182.938 220.676 182.121 220.012 181.855 218.699H179.406C179.641 220.27 180.246 221.406 181.223 222.109C182.184 222.797 183.242 223.141 184.398 223.141C185.258 223.125 186 222.926 186.625 222.543C187.266 222.176 187.754 221.77 188.09 221.324C188.473 220.871 188.746 220.352 188.91 219.766C189.066 219.172 189.145 218.32 189.145 217.211C189.145 216.492 189.121 215.887 189.074 215.395C189.027 214.91 188.949 214.5 188.84 214.164C188.629 213.547 188.285 213.004 187.809 212.535C187.488 212.184 187.07 211.887 186.555 211.645C186.008 211.426 185.406 211.309 184.75 211.293C183.727 211.293 182.816 211.605 182.02 212.23V208.363H188.816V205.914H179.711V215.148ZM193.363 210.66C193.379 209.848 193.633 209.234 194.125 208.82C194.609 208.422 195.168 208.223 195.801 208.223C196.457 208.223 197.027 208.422 197.512 208.82C197.988 209.234 198.234 209.848 198.25 210.66C198.234 211.449 197.988 212.051 197.512 212.465C197.027 212.895 196.457 213.109 195.801 213.109C195.168 213.109 194.609 212.895 194.125 212.465C193.633 212.051 193.379 211.449 193.363 210.66ZM190.598 218.008C190.613 219.547 191.133 220.777 192.156 221.699C193.133 222.645 194.348 223.125 195.801 223.141C197.262 223.125 198.496 222.645 199.504 221.699C200.496 220.777 201 219.547 201.016 218.008C201 216.359 200.328 215.078 199 214.164C199.508 213.719 199.922 213.207 200.242 212.629C200.547 212.09 200.699 211.449 200.699 210.707C200.684 209.285 200.219 208.109 199.305 207.18C198.398 206.258 197.23 205.789 195.801 205.773C194.395 205.789 193.246 206.258 192.355 207.18C191.41 208.109 190.93 209.285 190.914 210.707C190.914 211.449 191.082 212.09 191.418 212.629C191.707 213.207 192.105 213.719 192.613 214.164C191.285 215.078 190.613 216.359 190.598 218.008ZM193.047 217.984C193.062 217.188 193.344 216.539 193.891 216.039C194.414 215.547 195.051 215.293 195.801 215.277C196.574 215.293 197.223 215.547 197.746 216.039C198.277 216.539 198.551 217.188 198.566 217.984C198.551 218.766 198.277 219.406 197.746 219.906C197.223 220.43 196.574 220.691 195.801 220.691C195.051 220.691 194.414 220.43 193.891 219.906C193.344 219.406 193.062 218.766 193.047 217.984ZM203.383 223H205.973V215.699H213.074V213.402H205.973V208.363H214.293V205.914H203.383V223ZM218.688 215.277H219.719C220.477 215.277 221.102 215.508 221.594 215.969C222.094 216.445 222.352 217.117 222.367 217.984C222.352 218.836 222.094 219.492 221.594 219.953C221.102 220.445 220.496 220.691 219.777 220.691C219.105 220.691 218.566 220.508 218.16 220.141C217.762 219.789 217.453 219.328 217.234 218.758H214.785C215.051 220.18 215.633 221.266 216.531 222.016C217.43 222.766 218.461 223.141 219.625 223.141C221.133 223.125 222.367 222.645 223.328 221.699C224.305 220.777 224.801 219.516 224.816 217.914C224.816 217.195 224.664 216.508 224.359 215.852C224.039 215.195 223.52 214.633 222.801 214.164C223.504 213.688 223.992 213.145 224.266 212.535C224.5 211.926 224.617 211.293 224.617 210.637C224.602 209.34 224.156 208.215 223.281 207.262C222.367 206.285 221.133 205.789 219.578 205.773C218.352 205.789 217.297 206.227 216.414 207.086C215.516 207.953 215.004 209.02 214.879 210.285H217.328C217.484 209.582 217.789 209.062 218.242 208.727C218.672 208.391 219.148 208.223 219.672 208.223C220.398 208.238 220.992 208.469 221.453 208.914C221.914 209.375 222.152 209.965 222.168 210.684C222.168 211.395 221.938 211.973 221.477 212.418C221.016 212.879 220.367 213.109 219.531 213.109H218.688V215.277ZM226.293 220.457H233.418V223H235.867V220.457H237.227V218.148H235.867V213.238H233.418V218.148H228.953L234.73 205.914H232L226.293 218.148V220.457Z" fill="black"/>
<circle cx="496" cy="133" r="49.5" fill="#865C6C" stroke="black"/>
</svg>
