<svg width="50" height="25" viewBox="0 0 50 25" fill="none" xmlns="http://www.w3.org/2000/svg">
<path d="M10.4853 20C9.67198 20 8.97198 19.7133 8.38531 19.14C7.81198 18.5533 7.52531 17.8533 7.52531 17.04V8.56C7.52531 7.74667 7.81198 7.05333 8.38531 6.48C8.97198 5.89333 9.67198 5.6 10.4853 5.6H18.9453C19.7586 5.6 20.4586 5.89333 21.0453 6.48C21.632 7.05333 21.9253 7.74667 21.9253 8.56V16.88H23.5653V20H10.4853ZM11.2853 16.88H18.1253C18.5653 16.88 18.7853 16.88 18.7853 16.88C18.7853 16.88 18.7853 16.66 18.7853 16.22V9.38C18.7853 8.94 18.7853 8.72 18.7853 8.72C18.7853 8.72 18.5653 8.72 18.1253 8.72H11.2853C10.8453 8.72 10.6253 8.72 10.6253 8.72C10.6253 8.72 10.6253 8.94 10.6253 9.38V16.22C10.6253 16.66 10.6253 16.88 10.6253 16.88C10.6253 16.88 10.8453 16.88 11.2853 16.88Z" fill="black"/>
<rect width="2" height="22" transform="matrix(-1 0 0 1 30 1)" fill="black"/>
<path d="M34.18 20V5.6H45.06C45.86 5.6 46.5533 5.89333 47.14 6.48C47.7267 7.05333 48.02 7.74667 48.02 8.56V11.26C48.02 11.4333 48.0067 11.6 47.98 11.76C47.9667 11.9067 47.9333 12.0467 47.88 12.18C48.08 12.4333 48.2467 12.7267 48.38 13.06C48.5133 13.3933 48.58 13.7267 48.58 14.06V17.04C48.58 17.8533 48.2867 18.5533 47.7 19.14C47.1133 19.7133 46.4133 20 45.6 20H34.18ZM37.94 16.88H44.78C45.22 16.88 45.44 16.88 45.44 16.88C45.44 16.88 45.44 16.66 45.44 16.22V14.9C45.44 14.46 45.44 14.24 45.44 14.24C45.44 14.24 45.22 14.24 44.78 14.24H37.94C37.5 14.24 37.28 14.24 37.28 14.24C37.28 14.24 37.28 14.46 37.28 14.9V16.22C37.28 16.66 37.28 16.88 37.28 16.88C37.28 16.88 37.5 16.88 37.94 16.88ZM37.94 11.12H44.22C44.66 11.12 44.88 11.12 44.88 11.12C44.88 11.12 44.88 10.9 44.88 10.46V9.38C44.88 8.94 44.88 8.72 44.88 8.72C44.88 8.72 44.66 8.72 44.22 8.72H37.94C37.5 8.72 37.28 8.72 37.28 8.72C37.28 8.72 37.28 8.94 37.28 9.38V10.46C37.28 10.9 37.28 11.12 37.28 11.12C37.28 11.12 37.5 11.12 37.94 11.12Z" fill="black"/>
</svg>
