<svg width="34" height="18" viewBox="0 0 34 18" fill="none" xmlns="http://www.w3.org/2000/svg">
<rect width="1" height="12" transform="matrix(-1 0 0 1 20 3)" fill="black"/>
<path d="M7.33972 14C6.77039 14 6.28039 13.7993 5.86972 13.398C5.46839 12.9873 5.26772 12.4973 5.26772 11.928V5.992C5.26772 5.42267 5.46839 4.93733 5.86972 4.536C6.28039 4.12533 6.77039 3.92 7.33972 3.92H13.2617C13.8311 3.92 14.3211 4.12533 14.7317 4.536C15.1424 4.93733 15.3477 5.42267 15.3477 5.992V11.816H16.4957V14H7.33972ZM7.89972 11.816H12.6877C12.9957 11.816 13.1497 11.816 13.1497 11.816C13.1497 11.816 13.1497 11.662 13.1497 11.354V6.566C13.1497 6.258 13.1497 6.104 13.1497 6.104C13.1497 6.104 12.9957 6.104 12.6877 6.104H7.89972C7.59172 6.104 7.43772 6.104 7.43772 6.104C7.43772 6.104 7.43772 6.258 7.43772 6.566V11.354C7.43772 11.662 7.43772 11.816 7.43772 11.816C7.43772 11.816 7.59172 11.816 7.89972 11.816ZM22.2225 14V3.92H29.8385C30.3985 3.92 30.8838 4.12533 31.2945 4.536C31.7052 4.93733 31.9105 5.42267 31.9105 5.992V7.882C31.9105 8.00333 31.9012 8.12 31.8825 8.232C31.8732 8.33467 31.8498 8.43267 31.8125 8.526C31.9525 8.70333 32.0692 8.90867 32.1625 9.142C32.2558 9.37533 32.3025 9.60867 32.3025 9.842V11.928C32.3025 12.4973 32.0972 12.9873 31.6865 13.398C31.2758 13.7993 30.7858 14 30.2165 14H22.2225ZM24.8545 11.816H29.6425C29.9505 11.816 30.1045 11.816 30.1045 11.816C30.1045 11.816 30.1045 11.662 30.1045 11.354V10.43C30.1045 10.122 30.1045 9.968 30.1045 9.968C30.1045 9.968 29.9505 9.968 29.6425 9.968H24.8545C24.5465 9.968 24.3925 9.968 24.3925 9.968C24.3925 9.968 24.3925 10.122 24.3925 10.43V11.354C24.3925 11.662 24.3925 11.816 24.3925 11.816C24.3925 11.816 24.5465 11.816 24.8545 11.816ZM24.8545 7.784H29.2505C29.5585 7.784 29.7125 7.784 29.7125 7.784C29.7125 7.784 29.7125 7.63 29.7125 7.322V6.566C29.7125 6.258 29.7125 6.104 29.7125 6.104C29.7125 6.104 29.5585 6.104 29.2505 6.104H24.8545C24.5465 6.104 24.3925 6.104 24.3925 6.104C24.3925 6.104 24.3925 6.258 24.3925 6.566V7.322C24.3925 7.63 24.3925 7.784 24.3925 7.784C24.3925 7.784 24.5465 7.784 24.8545 7.784Z" fill="black"/>
</svg>
