<svg width="57" height="30" viewBox="0 0 57 30" fill="none" xmlns="http://www.w3.org/2000/svg">
<path d="M12.5824 24C11.6064 24 10.7664 23.656 10.0624 22.968C9.37438 22.264 9.03038 21.424 9.03038 20.448V10.272C9.03038 9.296 9.37438 8.464 10.0624 7.776C10.7664 7.072 11.6064 6.72 12.5824 6.72H22.7344C23.7104 6.72 24.5504 7.072 25.2544 7.776C25.9584 8.464 26.3104 9.296 26.3104 10.272V20.256H28.2784V24H12.5824ZM13.5424 20.256H21.7504C22.2784 20.256 22.5424 20.256 22.5424 20.256C22.5424 20.256 22.5424 19.992 22.5424 19.464V11.256C22.5424 10.728 22.5424 10.464 22.5424 10.464C22.5424 10.464 22.2784 10.464 21.7504 10.464H13.5424C13.0144 10.464 12.7504 10.464 12.7504 10.464C12.7504 10.464 12.7504 10.728 12.7504 11.256V19.464C12.7504 19.992 12.7504 20.256 12.7504 20.256C12.7504 20.256 13.0144 20.256 13.5424 20.256Z" fill="black"/>
<rect width="2" height="22" transform="matrix(-1 0 0 1 34 4)" fill="black"/>
<path d="M38.416 24V6.72H51.472C52.432 6.72 53.264 7.072 53.968 7.776C54.672 8.464 55.024 9.296 55.024 10.272V13.512C55.024 13.72 55.008 13.92 54.976 14.112C54.96 14.288 54.92 14.456 54.856 14.616C55.096 14.92 55.296 15.272 55.456 15.672C55.616 16.072 55.696 16.472 55.696 16.872V20.448C55.696 21.424 55.344 22.264 54.64 22.968C53.936 23.656 53.096 24 52.12 24H38.416ZM42.928 20.256H51.136C51.664 20.256 51.928 20.256 51.928 20.256C51.928 20.256 51.928 19.992 51.928 19.464V17.88C51.928 17.352 51.928 17.088 51.928 17.088C51.928 17.088 51.664 17.088 51.136 17.088H42.928C42.4 17.088 42.136 17.088 42.136 17.088C42.136 17.088 42.136 17.352 42.136 17.88V19.464C42.136 19.992 42.136 20.256 42.136 20.256C42.136 20.256 42.4 20.256 42.928 20.256ZM42.928 13.344H50.464C50.992 13.344 51.256 13.344 51.256 13.344C51.256 13.344 51.256 13.08 51.256 12.552V11.256C51.256 10.728 51.256 10.464 51.256 10.464C51.256 10.464 50.992 10.464 50.464 10.464H42.928C42.4 10.464 42.136 10.464 42.136 10.464C42.136 10.464 42.136 10.728 42.136 11.256V12.552C42.136 13.08 42.136 13.344 42.136 13.344C42.136 13.344 42.4 13.344 42.928 13.344Z" fill="black"/>
</svg>
