<svg width="340" height="181" viewBox="0 0 340 181" fill="none" xmlns="http://www.w3.org/2000/svg">
<path d="M75.4943 146C69.6383 146 64.5983 143.936 60.3743 139.808C56.2463 135.584 54.1823 130.544 54.1823 124.688V63.632C54.1823 57.776 56.2463 52.784 60.3743 48.656C64.5983 44.432 69.6383 42.32 75.4943 42.32H136.406C142.262 42.32 147.302 44.432 151.526 48.656C155.75 52.784 157.862 57.776 157.862 63.632V123.536H169.67V146H75.4943ZM81.2543 123.536H130.502C133.67 123.536 135.254 123.536 135.254 123.536C135.254 123.536 135.254 121.952 135.254 118.784V69.536C135.254 66.368 135.254 64.784 135.254 64.784C135.254 64.784 133.67 64.784 130.502 64.784H81.2543C78.0863 64.784 76.5023 64.784 76.5023 64.784C76.5023 64.784 76.5023 66.368 76.5023 69.536V118.784C76.5023 121.952 76.5023 123.536 76.5023 123.536C76.5023 123.536 78.0863 123.536 81.2543 123.536ZM228.574 146V42.32H306.91C312.67 42.32 317.662 44.432 321.886 48.656C326.11 52.784 328.222 57.776 328.222 63.632V83.072C328.222 84.32 328.126 85.52 327.934 86.672C327.838 87.728 327.598 88.736 327.214 89.696C328.654 91.52 329.854 93.632 330.814 96.032C331.774 98.432 332.254 100.832 332.254 103.232V124.688C332.254 130.544 330.142 135.584 325.918 139.808C321.694 143.936 316.654 146 310.798 146H228.574ZM255.646 123.536H304.894C308.062 123.536 309.646 123.536 309.646 123.536C309.646 123.536 309.646 121.952 309.646 118.784V109.28C309.646 106.112 309.646 104.528 309.646 104.528C309.646 104.528 308.062 104.528 304.894 104.528H255.646C252.478 104.528 250.894 104.528 250.894 104.528C250.894 104.528 250.894 106.112 250.894 109.28V118.784C250.894 121.952 250.894 123.536 250.894 123.536C250.894 123.536 252.478 123.536 255.646 123.536ZM255.646 82.064H300.862C304.03 82.064 305.614 82.064 305.614 82.064C305.614 82.064 305.614 80.48 305.614 77.312V69.536C305.614 66.368 305.614 64.784 305.614 64.784C305.614 64.784 304.03 64.784 300.862 64.784H255.646C252.478 64.784 250.894 64.784 250.894 64.784C250.894 64.784 250.894 66.368 250.894 69.536V77.312C250.894 80.48 250.894 82.064 250.894 82.064C250.894 82.064 252.478 82.064 255.646 82.064Z" fill="black"/>
<rect width="4" height="142" transform="matrix(-1 0 0 1 202 19)" fill="black"/>
</svg>
