<svg width="45" height="23" viewBox="0 0 45 23" fill="none" xmlns="http://www.w3.org/2000/svg">
<path d="M9.43678 18C8.70478 18 8.07478 17.742 7.54678 17.226C7.03078 16.698 6.77278 16.068 6.77278 15.336V7.704C6.77278 6.972 7.03078 6.348 7.54678 5.832C8.07478 5.304 8.70478 5.04 9.43678 5.04H17.0508C17.7828 5.04 18.4128 5.304 18.9408 5.832C19.4688 6.348 19.7328 6.972 19.7328 7.704V15.192H21.2088V18H9.43678ZM10.1568 15.192H16.3128C16.7088 15.192 16.9068 15.192 16.9068 15.192C16.9068 15.192 16.9068 14.994 16.9068 14.598V8.442C16.9068 8.046 16.9068 7.848 16.9068 7.848C16.9068 7.848 16.7088 7.848 16.3128 7.848H10.1568C9.76078 7.848 9.56278 7.848 9.56278 7.848C9.56278 7.848 9.56278 8.046 9.56278 8.442V14.598C9.56278 14.994 9.56278 15.192 9.56278 15.192C9.56278 15.192 9.76078 15.192 10.1568 15.192Z" fill="black"/>
<rect width="2" height="20" transform="matrix(-1 0 0 1 27 2)" fill="black"/>
<path d="M31.062 18V5.04H40.854C41.574 5.04 42.198 5.304 42.726 5.832C43.254 6.348 43.518 6.972 43.518 7.704V10.134C43.518 10.29 43.506 10.44 43.482 10.584C43.47 10.716 43.44 10.842 43.392 10.962C43.572 11.19 43.722 11.454 43.842 11.754C43.962 12.054 44.022 12.354 44.022 12.654V15.336C44.022 16.068 43.758 16.698 43.23 17.226C42.702 17.742 42.072 18 41.34 18H31.062ZM34.446 15.192H40.602C40.998 15.192 41.196 15.192 41.196 15.192C41.196 15.192 41.196 14.994 41.196 14.598V13.41C41.196 13.014 41.196 12.816 41.196 12.816C41.196 12.816 40.998 12.816 40.602 12.816H34.446C34.05 12.816 33.852 12.816 33.852 12.816C33.852 12.816 33.852 13.014 33.852 13.41V14.598C33.852 14.994 33.852 15.192 33.852 15.192C33.852 15.192 34.05 15.192 34.446 15.192ZM34.446 10.008H40.098C40.494 10.008 40.692 10.008 40.692 10.008C40.692 10.008 40.692 9.81 40.692 9.414V8.442C40.692 8.046 40.692 7.848 40.692 7.848C40.692 7.848 40.494 7.848 40.098 7.848H34.446C34.05 7.848 33.852 7.848 33.852 7.848C33.852 7.848 33.852 8.046 33.852 8.442V9.414C33.852 9.81 33.852 10.008 33.852 10.008C33.852 10.008 34.05 10.008 34.446 10.008Z" fill="black"/>
</svg>
